<svg xmlns="http://www.w3.org/2000/svg" xmlns:xlink="http://www.w3.org/1999/xlink" width="300" height="125"><path d="M139.316 37.104a110.844 110.844 0 0 1 4.771-6.069 86.263 86.263 0 0 1 2.32-2.645c.725-.79 1.325-1.39 1.801-1.802.194-.194.519-.324.974-.389a5.392 5.392 0 0 1 1.314-.033c.422.044.751.142.99.293s.249.356.032.616a115.233 115.233 0 0 1-4.429 4.705 76.615 76.615 0 0 0-4.543 4.998 41.097 41.097 0 0 0-3.813 5.403 18.752 18.752 0 0 0-2.271 5.923c-.022.13-.173.271-.454.422a2.403 2.403 0 0 1-.909.275 1.412 1.412 0 0 1-.876-.178c-.26-.152-.389-.455-.389-.909 0-.778.151-1.628.454-2.547.303-.92.687-1.828 1.152-2.727.465-.897.968-1.736 1.509-2.515a18.492 18.492 0 0 1 1.525-1.947 317.796 317.796 0 0 0-8.275 1.703c-2.705.596-5.441 1.196-8.211 1.802-.649 1.146-1.228 2.056-1.736 2.726-.509.671-.953 1.152-1.331 1.444-.379.292-.687.405-.925.341-.239-.065-.422-.249-.552-.552-.044-.13.01-.341.162-.633.151-.292.341-.611.568-.957s.449-.682.666-1.007c.216-.324.378-.584.487-.778-.195.044-.438.108-.73.194-.292.087-.584.179-.876.276a19.779 19.779 0 0 0-1.574.601c-.151.064-.211-.033-.178-.293.032-.259.14-.557.324-.892.184-.336.433-.66.747-.974a1.8 1.8 0 0 1 1.12-.536l2.044-.194a89.763 89.763 0 0 0 1.639-2.661 84.933 84.933 0 0 1 1.72-2.774 46.22 46.22 0 0 1 1.882-2.694 16.47 16.47 0 0 1 2.19-2.385c.173-.151.417-.286.73-.405s.654-.217 1.022-.293c.368-.075.719-.124 1.055-.146s.611-.005.828.049c.216.054.335.146.357.275.021.13-.097.304-.357.52-.519.411-1.136.984-1.85 1.72a38.48 38.48 0 0 0-2.207 2.499 67.41 67.41 0 0 0-2.255 2.937 34.222 34.222 0 0 0-1.963 3.002c2.921-.476 5.695-.93 8.324-1.362 2.626-.43 5.292-.907 7.997-1.427zm13.663 1.169c.303-.281.546-.352.73-.211.184.141.124.395-.179.763-.174.194-.411.481-.714.859-.304.379-.617.763-.941 1.152s-.648.736-.974 1.039-.595.476-.812.519c-.281.065-.676.022-1.184-.13a3.65 3.65 0 0 1-1.314-.682c-.282.195-.552.385-.812.568a2.952 2.952 0 0 1-.779.405c-.238.044-.53.033-.876-.032a3.387 3.387 0 0 1-1.022-.373 3.927 3.927 0 0 1-.893-.665 1.925 1.925 0 0 1-.519-.909c-.086-.367.005-.806.276-1.314s.6-.989.99-1.443c.39-.455.795-.85 1.217-1.185.422-.336.751-.514.99-.536.151-.021.341-.011.568.033.227.043.454.119.681.227.228.108.433.238.617.39.184.151.308.324.373.52.303-.26.562-.379.779-.357.173.044.357.098.551.162.195.065.374.142.536.228.162.087.298.194.405.324a.53.53 0 0 1 .131.422c0 .174-.088.406-.26.698-.174.292-.357.59-.552.893s-.357.573-.487.811c-.13.238-.151.39-.065.455.065.043.211-.006.438-.146.228-.141.503-.335.828-.584.324-.249.686-.535 1.087-.86.4-.327.796-.672 1.186-1.041zm-8.146 3.116c.238.13.536.06.893-.211s.698-.611 1.022-1.022c.324-.41.6-.832.828-1.266.227-.433.34-.757.34-.974-.086-.194-.238-.248-.454-.162-.216.087-.455.249-.714.487-.26.238-.525.53-.795.876s-.503.676-.698.989c-.194.314-.34.596-.438.844-.098.249-.093.396.016.439z"/><path d="M146.163 53.461c-.108.173-.297.287-.568.341-.27.054-.53.054-.779 0a1.038 1.038 0 0 1-.6-.356c-.151-.185-.151-.438 0-.763.108-.238.346-.688.714-1.347.368-.661.817-1.444 1.347-2.354.53-.908 1.12-1.904 1.769-2.985.649-1.082 1.31-2.169 1.98-3.262.67-1.092 1.331-2.152 1.979-3.181a202.113 202.113 0 0 1 1.77-2.758c.529-.812.984-1.472 1.363-1.979.377-.509.621-.784.729-.828.216-.13.454-.146.714-.049a2.494 2.494 0 0 1 1.201.973c.129.206.162.373.098.503-.045.13-.125.276-.244.438s-.287.396-.503.698-.498.692-.844 1.168l-1.298 1.785c.324-.303.66-.611 1.006-.925s.654-.601.925-.86.503-.476.698-.649c.194-.173.312-.271.356-.292.087-.043.254-.049.503-.016a4.08 4.08 0 0 1 1.525.55c.227.142.362.287.406.438.043.108 0 .266-.131.471a5.438 5.438 0 0 1-.486.649c-.195.227-.411.47-.648.729-.238.26-.455.492-.649.698s-.341.39-.438.552-.113.265-.049.308c.108.065.416-.037.926-.308.508-.271 1.07-.595 1.688-.974a45.263 45.263 0 0 0 1.736-1.12c.54-.367.896-.627 1.07-.778.324-.325.562-.406.714-.244.151.163.13.396-.065.698-.107.151-.395.443-.859.876-.465.434-.979.893-1.541 1.38-.563.486-1.115.93-1.656 1.33s-.93.633-1.168.698c-.324.064-.67.064-1.038 0a4.159 4.159 0 0 1-1.038-.325 2.923 2.923 0 0 1-.844-.584c-.238-.237-.369-.497-.391-.779-.021-.129.021-.303.131-.519.107-.216.227-.433.356-.649.151-.237.325-.497.52-.778-.433.346-.854.703-1.266 1.07-.368.304-.747.649-1.136 1.039-.39.389-.736.768-1.039 1.136-.887 1.319-1.947 2.953-3.18 4.9s-2.49 4.027-3.766 6.234z"/><path d="M156.288 53.461c-.108.173-.298.287-.568.341s-.53.054-.778 0a1.044 1.044 0 0 1-.601-.356c-.151-.185-.151-.438 0-.763.108-.238.347-.688.714-1.347.368-.661.816-1.444 1.347-2.354.53-.908 1.12-1.904 1.769-2.985.649-1.082 1.31-2.169 1.98-3.262.67-1.092 1.33-2.152 1.979-3.181a202.113 202.113 0 0 1 1.77-2.758c.529-.812.984-1.472 1.363-1.979.377-.509.621-.784.729-.828.216-.13.454-.146.714-.049a2.494 2.494 0 0 1 1.201.973c.129.206.162.373.098.503-.045.13-.125.276-.244.438s-.287.396-.503.698-.498.692-.844 1.168l-1.298 1.785c.324-.303.66-.611 1.006-.925s.654-.601.925-.86.503-.476.698-.649c.194-.173.312-.271.356-.292.087-.043.254-.049.503-.016a4.08 4.08 0 0 1 1.525.55c.227.142.362.287.406.438.043.108 0 .266-.131.471a5.438 5.438 0 0 1-.486.649c-.195.227-.411.47-.648.729-.238.26-.455.492-.649.698s-.341.39-.438.552-.113.265-.049.308c.108.065.416-.037.926-.308.508-.271 1.07-.595 1.688-.974a45.263 45.263 0 0 0 1.736-1.12c.54-.367.896-.627 1.07-.778.324-.325.562-.406.714-.244.151.163.13.396-.065.698-.107.151-.395.443-.859.876-.465.434-.979.893-1.541 1.38-.563.486-1.115.93-1.656 1.33s-.93.633-1.168.698c-.324.064-.67.064-1.038 0a4.159 4.159 0 0 1-1.038-.325 2.923 2.923 0 0 1-.844-.584c-.238-.237-.369-.497-.391-.779-.021-.129.021-.303.131-.519.107-.216.227-.433.356-.649.151-.237.325-.497.52-.778-.433.346-.854.703-1.266 1.07-.368.304-.747.649-1.136 1.039-.39.389-.736.768-1.039 1.136a218.42 218.42 0 0 0-3.18 4.9 181.672 181.672 0 0 0-3.766 6.234z"/><path d="M182.51 38.111c.303-.26.551-.309.746-.146s.141.417-.162.763c-.087.108-.324.33-.715.665-.389.336-.881.779-1.477 1.331-.595.552-1.276 1.195-2.044 1.931a71.563 71.563 0 0 0-2.386 2.401c-.973 1.039-1.773 2.061-2.4 3.067a33.958 33.958 0 0 0-1.559 2.742c-.41.821-.74 1.509-.99 2.061-.248.552-.47.87-.664.957a2.044 2.044 0 0 1-.747.146 2.648 2.648 0 0 1-.844-.098c-.259-.076-.442-.194-.552-.357-.107-.162-.054-.395.162-.697.152-.238.482-.79.99-1.655s1.109-1.882 1.801-3.051a356.046 356.046 0 0 1 2.256-3.748c.811-1.33 1.596-2.58 2.353-3.748-.433.411-.854.778-1.266 1.104-.411.324-.746.486-1.006.486-.13 0-.304-.037-.52-.113a4.213 4.213 0 0 1-.649-.292c-.215-.119-.416-.26-.6-.422s-.297-.341-.341-.535c-.021-.174.06-.471.243-.893s.422-.877.714-1.363c.292-.487.605-.963.941-1.428.335-.465.644-.816.925-1.055.13-.108.309-.141.535-.098.228.044.455.136.682.276.228.141.433.308.617.503.184.194.286.368.309.519.064.152-.045.422-.325.812-.281.39-.579.773-.893 1.152s-.567.703-.763.974c-.194.271-.174.362.064.275.174-.064.395-.205.666-.422.27-.216.562-.471.876-.763s.633-.6.958-.925c.324-.324.627-.616.908-.876.173-.151.309-.286.406-.405.097-.119.178-.189.242-.211.152-.021.325 0 .52.064s.379.151.552.26.313.243.423.405a.86.86 0 0 1 .162.471c0 .174-.131.422-.391.746-.259.325-.589.73-.989 1.218-.4.486-.866 1.06-1.396 1.72-.53.66-1.066 1.411-1.606 2.255.065-.064.309-.324.73-.778s.94-.99 1.558-1.606 1.276-1.249 1.979-1.898 1.36-1.223 1.967-1.721z"/><defs><path id="a" d="M0 .872h300v123.256H0z"/></defs><clipPath id="b"><use xlink:href="#a" overflow="visible"/></clipPath><g clip-path="url(#b)"><path d="M95.485 117.516c0 .405-.109.788-.328 1.147-.219.358-.554.673-1.007.942-.453.269-1.019.479-1.698.632-.679.152-1.483.229-2.411.229a9.46 9.46 0 0 1-1.463-.117c-.43-.062-.901-.16-1.417-.293s-1.015-.323-1.499-.573l.714-1.64c.429.219.861.389 1.294.51s.825.209 1.176.264c.414.062.812.098 1.194.105 1.17 0 2.042-.105 2.616-.316s.86-.487.86-.831a.512.512 0 0 0-.269-.48c-.18-.102-.457-.159-.831-.176a14.758 14.758 0 0 0-.486-.029c-.238-.012-.529-.024-.873-.04-.343-.016-.726-.031-1.147-.047s-.859-.035-1.311-.059c-.453-.023-.869-.086-1.247-.188s-.706-.248-.983-.439a2.077 2.077 0 0 1-.649-.702c-.156-.277-.234-.603-.234-.978s.123-.728.369-1.06c.246-.331.597-.62 1.054-.866s1.011-.438 1.663-.579a10.346 10.346 0 0 1 2.183-.211c.476 0 .96.035 1.452.105.421.062.892.152 1.411.27a7.53 7.53 0 0 1 1.516.515l-.621 1.615a9.176 9.176 0 0 0-.819-.292 10.885 10.885 0 0 0-1.961-.41 8.594 8.594 0 0 0-.978-.059c-.468 0-.903.021-1.305.064a6.158 6.158 0 0 0-1.048.193c-.297.086-.529.191-.696.316-.168.124-.252.265-.252.421 0 .203.086.355.258.457.171.102.425.159.761.175l1.581.07c.679.031 1.482.066 2.411.105.468.023.888.086 1.259.188.371.102.687.246.948.434.261.187.462.417.603.69.14.275.21.586.21.938zm4.097 2.645v-8.194h2.061v8.194h-2.061zm14.61 0l-5.923-5.725v5.725h-2.061v-8.194h2.061l5.923 5.725v-5.725h2.061v8.194h-2.061zm17.009-2.154a4.033 4.033 0 0 1-.784.966c-.32.293-.695.549-1.124.767-.429.219-.909.389-1.44.51s-1.112.182-1.744.182c-.897 0-1.699-.117-2.406-.352s-1.303-.55-1.791-.948a4.106 4.106 0 0 1-1.118-1.387 3.785 3.785 0 0 1-.386-1.681c0-.593.129-1.152.386-1.68.258-.526.63-.989 1.118-1.387.488-.398 1.084-.715 1.791-.948.707-.234 1.508-.352 2.406-.352.609 0 1.172.057 1.691.17s.989.273 1.411.479c.422.207.792.449 1.112.727.32.276.585.579.796.907l-1.85.937a2.293 2.293 0 0 0-.474-.551 2.917 2.917 0 0 0-.714-.444 4.601 4.601 0 0 0-.937-.299 5.365 5.365 0 0 0-1.118-.111c-.578 0-1.083.068-1.516.205s-.792.322-1.077.556a2.273 2.273 0 0 0-.86 1.791c0 .336.072.658.216.966.145.309.359.58.644.813.285.234.644.422 1.077.562s.938.211 1.516.211a5.26 5.26 0 0 0 1.171-.123c.359-.082.679-.193.96-.334.281-.141.522-.305.726-.491.203-.188.355-.387.457-.598l1.861.937zm4.097 2.154v-8.194h9.869v1.768h-7.808v1.475h6.872v1.593h-6.872v1.592h8.113v1.768h-10.174zm32.696-5.724c0 .383-.076.7-.228.954a1.874 1.874 0 0 1-.614.626c-.258.164-.553.293-.885.387s-.677.176-1.035.246c-.289.047-.623.107-1.002.182l-1.111.216c-.363.07-.695.137-.995.199-.301.062-.517.105-.649.129-.227.047-.424.154-.592.322s-.252.399-.252.696h6.954v1.768h-9.062v-1.592c0-.438.074-.815.223-1.136s.355-.593.621-.819.583-.414.953-.562a6.833 6.833 0 0 1 1.225-.351c.304-.062.627-.123.971-.182l.996-.17.877-.152c.266-.047.473-.082.621-.105.391-.077.657-.171.802-.28a.541.541 0 0 0 .216-.457.543.543 0 0 0-.163-.374c-.109-.117-.283-.219-.521-.305a4.843 4.843 0 0 0-.92-.211 9.427 9.427 0 0 0-1.346-.082 5.152 5.152 0 0 0-2.055.41c-.27.117-.494.25-.674.397a1.588 1.588 0 0 0-.386.434l-1.85-.937c.141-.219.356-.449.649-.69.293-.242.65-.463 1.071-.662a7.7 7.7 0 0 1 1.452-.497 7.563 7.563 0 0 1 1.791-.199c.866 0 1.609.076 2.23.229.62.152 1.129.355 1.527.608.398.254.69.551.878.89.189.338.283.695.283 1.07zm17.01 1.626a4.04 4.04 0 0 1-.357 1.681 4.005 4.005 0 0 1-1.047 1.387c-.461.398-1.027.714-1.697.948-.672.234-1.44.352-2.307.352-.859 0-1.623-.117-2.295-.352-.671-.234-1.236-.55-1.697-.948a3.978 3.978 0 0 1-1.404-3.068c0-.593.119-1.152.356-1.68a3.996 3.996 0 0 1 1.048-1.387c.461-.398 1.026-.715 1.697-.948.672-.234 1.436-.352 2.295-.352.866 0 1.635.117 2.307.352.67.233 1.236.55 1.697.948a3.987 3.987 0 0 1 1.404 3.067zm-2.166 0c0-.351-.064-.685-.193-1.001a2.3 2.3 0 0 0-.591-.837c-.265-.241-.601-.433-1.007-.573s-.89-.211-1.451-.211c-.555 0-1.034.07-1.439.211a2.894 2.894 0 0 0-1.008.573 2.292 2.292 0 0 0-.591.837c-.129.316-.192.65-.192 1.001 0 .352.063.686.192 1.001.129.316.325.596.591.837.266.242.602.434 1.008.574.405.141.885.211 1.439.211.562 0 1.045-.07 1.451-.211s.742-.332 1.007-.574c.266-.241.462-.521.591-.837.128-.315.193-.649.193-1.001zm17.057 0c0 .594-.119 1.153-.356 1.681a3.996 3.996 0 0 1-1.048 1.387c-.461.398-1.026.714-1.697.948-.672.234-1.439.352-2.307.352-.858 0-1.623-.117-2.294-.352s-1.237-.55-1.698-.948a3.987 3.987 0 0 1-1.404-3.068c0-.593.119-1.152.357-1.68a4.005 4.005 0 0 1 1.047-1.387c.461-.398 1.027-.715 1.698-.948.671-.234 1.436-.352 2.294-.352.867 0 1.635.117 2.307.352.671.233 1.236.55 1.697.948.461.397.81.86 1.048 1.387.236.528.356 1.088.356 1.68zm-2.166 0c0-.351-.064-.685-.193-1.001a2.3 2.3 0 0 0-.591-.837 2.882 2.882 0 0 0-1.007-.573c-.406-.141-.89-.211-1.452-.211-.554 0-1.033.07-1.439.211s-.742.332-1.007.573a2.292 2.292 0 0 0-.591.837c-.129.316-.193.65-.193 1.001 0 .352.064.686.193 1.001.129.316.325.596.591.837.265.242.601.434 1.007.574s.886.211 1.439.211c.562 0 1.046-.07 1.452-.211a2.884 2.884 0 0 0 1.007-.574c.266-.241.462-.521.591-.837.129-.315.193-.649.193-1.001zm15.839-1.603a4.67 4.67 0 0 0-.938-.479 7.917 7.917 0 0 0-1.117-.322 7.04 7.04 0 0 0-1.517-.146c-.546 0-1.06.066-1.539.199s-.901.311-1.265.532a3.039 3.039 0 0 0-.872.778 1.777 1.777 0 0 0-.362.937 7.089 7.089 0 0 1 1.99-.796 9.391 9.391 0 0 1 2.212-.269c.554 0 1.085.051 1.593.151.506.102.953.258 1.34.469s.694.474.925.79c.229.316.345.688.345 1.118 0 .336-.102.683-.304 1.042-.203.358-.511.683-.925.972s-.938.526-1.574.714c-.637.188-1.388.281-2.254.281s-1.631-.119-2.295-.357c-.663-.238-1.219-.552-1.668-.942a3.88 3.88 0 0 1-1.013-1.34 3.755 3.755 0 0 1-.339-1.552c0-.593.129-1.163.386-1.709a4.278 4.278 0 0 1 1.136-1.451c.5-.422 1.109-.758 1.832-1.007.722-.25 1.547-.375 2.477-.375.529.016 1.068.074 1.615.176.234.047.478.104.731.17.253.066.511.146.772.239a5.903 5.903 0 0 1 1.503.797l-.875 1.38zm-1.172 2.88a.659.659 0 0 0-.163-.445 1.239 1.239 0 0 0-.456-.31c-.195-.082-.428-.145-.697-.188s-.561-.064-.872-.064c-.608 0-1.263.078-1.961.234s-1.353.386-1.961.69c.241.398.62.724 1.136.978s1.178.381 1.99.381c.53 0 .984-.037 1.363-.111s.689-.17.932-.287c.241-.117.417-.252.526-.404a.802.802 0 0 0 .163-.474z"/></g><path d="M55.014 85.5c0-.296.104-.549.311-.757a1.03 1.03 0 0 1 .756-.311h2.847c.296 0 .548.104.756.311.207.208.311.461.311.757v6.272c0 .297-.104.549-.311.756a1.03 1.03 0 0 1-.756.312H20.982c-.297 0-.549-.104-.756-.312a1.025 1.025 0 0 1-.311-.756V88.97c0-.296.104-.549.311-.756.208-.208.459-.312.756-.312h4.226c.296 0 .548-.104.756-.312.207-.207.312-.46.312-.757V70.598c0-.326-.104-.586-.312-.778a1.072 1.072 0 0 0-.756-.29h-4.226a1.03 1.03 0 0 1-.756-.311 1.03 1.03 0 0 1-.311-.757v-2.847c0-.296.104-.541.311-.734.208-.192.459-.289.756-.289h16.371c.296 0 .548.097.756.289a.961.961 0 0 1 .311.734v2.847c0 .297-.104.549-.311.757-.208.207-.46.311-.756.311h-5.071c-.297 0-.549.097-.756.29-.208.192-.312.452-.312.778v16.236c0 .297.104.55.312.757.207.208.459.312.756.312H53.99a.958.958 0 0 0 .734-.312c.193-.207.29-.46.29-.757V85.5zm53.47 1.468c.148.267.378.489.689.667.312.179.615.268.912.268h5.338c.296 0 .541.104.734.312.192.207.289.46.289.756v2.803c0 .297-.097.549-.289.756a.958.958 0 0 1-.734.312h-15.57c-.297 0-.549-.104-.756-.312a1.026 1.026 0 0 1-.312-.756V88.97c0-.296.104-.549.312-.756.207-.208.459-.312.756-.312h2.358c.326 0 .534-.089.623-.268.089-.178.059-.4-.089-.667L101.1 84.21a1.957 1.957 0 0 0-.667-.623 1.79 1.79 0 0 0-.934-.267H85.352c-.297 0-.601.089-.912.267s-.542.386-.689.623l-1.646 2.758c-.149.267-.171.489-.067.667.104.179.304.268.601.268h2.358c.296 0 .548.104.756.312.207.207.311.46.311.756v2.803c0 .297-.104.549-.311.756a1.03 1.03 0 0 1-.756.312H69.471c-.297 0-.549-.104-.756-.312a1.025 1.025 0 0 1-.311-.756V88.97c0-.296.104-.549.311-.756.208-.208.459-.312.756-.312h5.294c.296 0 .601-.089.912-.268.312-.178.541-.4.689-.667l9.787-16.548c.148-.237.17-.445.066-.623-.104-.178-.304-.268-.601-.268h-2.001c-.327 0-.586-.104-.779-.311a1.072 1.072 0 0 1-.289-.757v-2.847c0-.296.096-.541.289-.734.193-.192.452-.289.779-.289h17.66c.296 0 .548.097.756.289a.962.962 0 0 1 .312.734v2.847c0 .297-.104.549-.312.757-.208.207-.46.311-.756.311h-2.046c-.296 0-.489.09-.578.268s-.06.386.089.623l9.742 16.549zM97.007 79.05c.296 0 .497-.089.601-.268.104-.178.082-.385-.066-.622l-4.582-7.74a5.47 5.47 0 0 0-.356-.623 1.116 1.116 0 0 0-.178-.268l-.133.268c-.06.089-.126.186-.2.289a2.522 2.522 0 0 0-.2.334l-4.538 7.74c-.148.237-.178.444-.089.622.089.179.282.268.579.268h9.162zm74.6-.779c.207.192.312.452.312.778v2.091c0 .297-.105.549-.312.756a1.026 1.026 0 0 1-.756.312h-3.203c-.297 0-.549.104-.756.312a1.03 1.03 0 0 0-.312.756v8.274c0 .297-.104.549-.312.756-.207.208-.46.312-.756.312h-2.848c-.297 0-.541-.059-.733-.178-.193-.118-.289-.252-.289-.4s-.097-.223-.29-.223c-.192 0-.407.074-.645.223l-.311.223a4.01 4.01 0 0 1-.936.4 3.521 3.521 0 0 1-1.022.178h-24.289c-.297 0-.616-.066-.957-.2a2.934 2.934 0 0 1-.868-.512l-3.47-3.114a2.258 2.258 0 0 1-.578-.822 2.4 2.4 0 0 1-.223-.957V70.152c0-.296.074-.615.223-.956a2.27 2.27 0 0 1 .578-.823l3.47-3.158a3.17 3.17 0 0 1 .868-.445c.34-.118.66-.178.957-.178h25.089c.296 0 .578.097.845.289.268.193.445.423.534.689.089.268.192.4.312.4.118 0 .223-.133.312-.4l.044-.089c.09-.267.268-.504.534-.712.267-.207.548-.312.845-.312h2.848c.296 0 .549.104.756.312.207.208.312.461.312.757v6.272a.953.953 0 0 1-.312.733c-.207.193-.46.305-.756.334h-2.848c-.297 0-.541-.066-.733-.2-.193-.134-.289-.289-.289-.467v-1.69a.937.937 0 0 0-.29-.689.993.993 0 0 0-.733-.29h-24.556a2.82 2.82 0 0 0-.979.2c-.356.134-.638.305-.845.512l-.445.356c-.238.208-.43.482-.579.822a2.422 2.422 0 0 0-.222.957v12.589c0 .297.074.616.222.957s.341.615.579.822l.445.4c.207.208.489.378.845.512s.682.2.979.2h20.997c.296 0 .638-.052 1.022-.155.386-.104.697-.229.935-.379l1.69-1.022c.237-.148.452-.378.645-.689.193-.312.29-.615.29-.912v-1.424a1.03 1.03 0 0 0-.312-.756 1.033 1.033 0 0 0-.756-.312h-5.738c-.297 0-.55-.104-.757-.312a1.026 1.026 0 0 1-.312-.756V79.05c0-.326.104-.586.312-.778.207-.193.46-.29.757-.29h16.014c.298-.001.55.096.757.289zm47.332-13.679c.296 0 .549.111.756.334s.312.482.312.778v5.961c0 .327-.104.586-.312.778a1.07 1.07 0 0 1-.756.289h-2.848c-.297 0-.549-.096-.756-.289-.207-.192-.311-.451-.311-.778v-1.067c0-.326-.098-.586-.289-.778a.996.996 0 0 0-.734-.29h-21.354c-.297 0-.549.097-.756.29-.208.192-.312.452-.312.778v4.849c0 .297.104.541.312.734.207.192.459.289.756.289h11.389c.296 0 .549.104.756.312.207.207.312.46.312.756v2.135c0 .297-.104.55-.312.757-.207.208-.46.312-.756.312h-11.389c-.297 0-.549.097-.756.289-.208.193-.312.452-.312.778v5.026c0 .297.104.55.312.757.207.208.459.312.756.312h21.354a.958.958 0 0 0 .734-.312c.191-.207.289-.46.289-.757V85.1c0-.296.104-.549.311-.757a1.03 1.03 0 0 1 .756-.311h2.848c.296 0 .549.104.756.311.207.208.312.461.312.757v6.673c0 .297-.104.549-.312.756-.207.208-.46.312-.756.312h-37.59c-.297 0-.549-.104-.756-.312a1.026 1.026 0 0 1-.312-.756V88.97c0-.296.104-.549.312-.756.207-.208.459-.312.756-.312h4.227c.296 0 .548-.104.756-.312.207-.207.312-.46.312-.757V70.598c0-.326-.104-.586-.312-.778a1.072 1.072 0 0 0-.756-.29h-4.227a1.03 1.03 0 0 1-.756-.311 1.03 1.03 0 0 1-.312-.757v-2.847c0-.296.104-.541.312-.734.207-.192.459-.289.756-.289h37.59zm55.473 22.776c.267.148.592.274.979.378.385.104.727.156 1.023.156h2.535c.296 0 .549.104.756.312.207.207.312.46.312.756v2.803c0 .297-.104.549-.312.756-.207.208-.46.312-.756.312h-15.57a.953.953 0 0 1-.733-.312 1.068 1.068 0 0 1-.289-.756V88.97c0-.296.096-.549.289-.756a.955.955 0 0 1 .733-.312h2.092c.296 0 .451-.052.467-.156.015-.104-.097-.229-.334-.378l-10.409-5.694c-.237-.147-.556-.267-.956-.355s-.75-.134-1.046-.134h-8.585c-.297 0-.55.104-.757.312a1.03 1.03 0 0 0-.312.756v4.582c0 .297.104.55.312.757.207.208.46.312.757.312h4.226c.296 0 .548.104.757.312.207.207.311.46.311.756v2.803c0 .297-.104.549-.311.756a1.033 1.033 0 0 1-.757.312h-15.525a1.03 1.03 0 0 1-.757-.312 1.03 1.03 0 0 1-.311-.756V88.97c0-.296.104-.549.311-.756a1.03 1.03 0 0 1 .757-.312h4.226c.297 0 .549-.104.757-.312.207-.207.312-.46.312-.757V70.598c0-.326-.104-.586-.312-.778a1.073 1.073 0 0 0-.757-.29h-4.226c-.297 0-.549-.104-.757-.311a1.033 1.033 0 0 1-.311-.757v-2.847c0-.296.104-.541.311-.734.208-.192.46-.289.757-.289h36.878c.297 0 .63.06 1.001.178.37.119.675.268.912.445l4.182 3.158c.237.148.437.394.601.734.162.341.244.66.244.956v5.649c0 .297-.082.608-.244.935-.164.326-.363.578-.601.756l-4.182 3.158a4.76 4.76 0 0 1-.912.423c-.371.134-.704.2-1.001.2h-6.05c-.297 0-.452.045-.468.134-.015.089.097.208.334.355l10.409 5.695zM243.539 75.18c0 .297.104.549.312.756.207.208.46.312.757.312h23.932c.297 0 .623-.066.979-.2s.651-.289.89-.467l.934-.668c.237-.178.438-.43.602-.756.162-.326.244-.638.244-.935v-.712c0-.296-.082-.607-.244-.934a2.11 2.11 0 0 0-.602-.757l-.934-.667c-.238-.178-.533-.326-.89-.444s-.683-.179-.979-.179h-23.932c-.297 0-.55.097-.757.29-.208.192-.312.452-.312.778v4.583z"/><defs><path id="c" d="M0 0h300v125H0z"/></defs><clipPath id="d"><use xlink:href="#c" overflow="visible"/></clipPath><path clip-path="url(#d)" fill="none" stroke="#FBD335" stroke-miterlimit="10" d="M71.672 39.758H0"/><defs><path id="e" d="M0 0h300v125H0z"/></defs><clipPath id="f"><use xlink:href="#e" overflow="visible"/></clipPath><path clip-path="url(#f)" fill="none" stroke="#FBD335" stroke-miterlimit="10" d="M300 39.758h-71.672"/><defs><path id="g" d="M0 0h300v125H0z"/></defs><clipPath id="h"><use xlink:href="#g" overflow="visible"/></clipPath><path clip-path="url(#h)" fill="none" stroke="#FBD335" stroke-miterlimit="10" d="M71.672 118.115H0"/><defs><path id="i" d="M0 0h300v125H0z"/></defs><clipPath id="j"><use xlink:href="#i" overflow="visible"/></clipPath><path clip-path="url(#j)" fill="none" stroke="#FBD335" stroke-miterlimit="10" d="M300 118.115h-71.672"/><path d="M88.518 9.887l-3.992.812.335 1.652 3.59-.73.31 1.524-3.59.73.338 1.663 4.118-.837.322 1.583-5.907 1.2-1.629-8.017 5.781-1.175.324 1.595zm9.624-3.334l1.37 8.065-1.8.306-4.7-4.401.858 5.054-1.801.306-1.37-8.065 1.686-.286 4.839 4.52-.882-5.192 1.8-.307zm3.061-.449l4.219-.593.742 5.285c.136.966-.012 1.724-.443 2.273-.431.548-1.036.877-1.817.987-.973.137-1.876-.119-2.707-.766l.756-1.43c.561.456 1.107.648 1.641.573a.868.868 0 0 0 .613-.388c.154-.222.203-.53.148-.924l-.535-3.801-2.399.337-.218-1.553zm8.442 5.971c-.912-.709-1.435-1.663-1.568-2.856-.134-1.194.165-2.239.896-3.133.732-.895 1.699-1.41 2.901-1.544 1.202-.135 2.258.153 3.17.863.912.709 1.435 1.663 1.569 2.857.134 1.193-.166 2.238-.897 3.132-.732.895-1.699 1.41-2.9 1.545-1.203.135-2.259-.153-3.171-.864zm2.412-5.952c-.679.076-1.222.396-1.629.96-.408.563-.571 1.209-.49 1.934s.383 1.314.905 1.771a2.247 2.247 0 0 0 1.801.569 2.248 2.248 0 0 0 1.629-.954c.409-.56.572-1.202.491-1.927-.082-.725-.384-1.318-.907-1.777-.522-.461-1.122-.652-1.8-.576z"/><defs><path id="k" d="M0 0h300v125H0z"/></defs><clipPath id="l"><use xlink:href="#k" overflow="visible"/></clipPath><g clip-path="url(#l)"><path d="M120.551 11.37l-.273-3.266-3.241-4.761 1.971-.169 2.019 2.923 1.503-3.227 1.971-.17-2.403 5.247.273 3.266-1.82.157z"/></g><defs><path id="m" d="M0 0h300v125H0z"/></defs><clipPath id="n"><use xlink:href="#m" overflow="visible"/></clipPath><g clip-path="url(#n)"><path d="M127.908 2.485l.541 8.281-1.821.122-.541-8.281 1.821-.122z"/></g><defs><path id="o" d="M0 0h300v125H0z"/></defs><clipPath id="p"><use xlink:href="#o" overflow="visible"/></clipPath><g clip-path="url(#p)"><path d="M138.179 1.961l.364 8.29-1.824.082-4.122-5.019.228 5.195-1.824.082-.364-8.29 1.707-.077 4.245 5.155-.234-5.336 1.824-.082z"/></g><defs><path id="q" d="M0 0h300v125H0z"/></defs><clipPath id="r"><use xlink:href="#q" overflow="visible"/></clipPath><g clip-path="url(#r)"><path d="M148.18 5.833l.046 2.944c-.797.931-1.914 1.409-3.349 1.432-1.202.02-2.216-.368-3.044-1.162-.828-.794-1.251-1.806-1.271-3.037-.02-1.23.379-2.264 1.198-3.101.817-.836 1.813-1.264 2.988-1.283a4.415 4.415 0 0 1 3.079 1.125l-.926 1.404c-.372-.318-.713-.537-1.023-.654a2.667 2.667 0 0 0-1.003-.167c-.694.011-1.276.26-1.744.746-.469.487-.696 1.122-.684 1.905.012.784.25 1.407.714 1.871.464.463 1.012.69 1.644.68.632-.01 1.156-.142 1.574-.394l-.036-2.279 1.837-.03z"/></g><defs><path id="s" d="M0 0h300v125H0z"/></defs><clipPath id="t"><use xlink:href="#s" overflow="visible"/></clipPath><g clip-path="url(#t)"><path d="M160.08 3.562l-4.071-.082-.033 1.709 3.662.074-.031 1.579-3.662-.074-.034 1.721 4.201.084-.032 1.638-6.026-.122.163-8.296 5.897.119-.034 1.65z"/></g><defs><path id="u" d="M0 0h300v125H0z"/></defs><clipPath id="v"><use xlink:href="#u" overflow="visible"/></clipPath><g clip-path="url(#v)"><path d="M167.707 2.223l1.976.09-3.648 8.141-1.544-.07-2.921-8.438 1.976.089 1.85 5.372 2.311-5.184z"/></g><defs><path id="w" d="M0 0h300v125H0z"/></defs><clipPath id="x"><use xlink:href="#w" overflow="visible"/></clipPath><g clip-path="url(#x)"><path d="M177.193 4.492l-4.063-.288-.117 1.705 3.654.259-.108 1.576-3.654-.259-.119 1.717 4.191.297-.111 1.634-6.012-.426.569-8.278 5.884.417-.114 1.646z"/></g><defs><path id="y" d="M0 0h300v125H0z"/></defs><clipPath id="z"><use xlink:href="#y" overflow="visible"/></clipPath><g clip-path="url(#z)"><path d="M184.343 8.855l1.78 3.156-2.236-.218-1.554-2.812-1.259-.123-.251 2.636-1.816-.178.786-8.261 3.087.302c1.265.124 2.147.429 2.645.915.499.486.702 1.21.611 2.171-.126 1.323-.724 2.127-1.793 2.412zm-.061-2.588c.043-.445-.045-.762-.262-.95-.218-.188-.616-.311-1.199-.368l-1.362-.133-.233 2.446 1.327.13c.622.061 1.055 0 1.3-.183.244-.183.387-.497.429-.942z"/></g><path d="M189.506 13.125l.394-3.206-2.208-5.259 1.963.241 1.384 3.235 2.125-2.805 1.962.241-3.413 4.568-.394 3.206-1.813-.221zm9.607 1.291l1.312-8.075 3.141.511c.548.089 1.009.23 1.384.426.376.195.646.421.809.677.296.475.4.974.315 1.497-.103.632-.383 1.068-.843 1.31-.154.086-.262.138-.32.156s-.162.047-.311.085c.482.19.846.479 1.086.871.24.391.32.84.237 1.349a2.198 2.198 0 0 1-.819 1.396c-.528.428-1.348.552-2.455.372l-3.536-.575zm3.286-1.031c.516.083.913.083 1.19-.002.28-.086.449-.315.51-.688.061-.374-.035-.643-.289-.806-.256-.164-.683-.295-1.283-.393l-1.063-.173-.302 1.86 1.237.202zm.152-3.343c.5.081.881.087 1.141.019s.419-.282.478-.64c.058-.358-.015-.613-.219-.765-.205-.151-.573-.271-1.104-.356l-.867-.142-.283 1.744.854.14zm8.345-1.903l-1.492 8.043-1.795-.333 1.492-8.043 1.795.333zm4.428 9.228l-1.789-.372 1.345-6.462-2.268-.472.322-1.547 6.324 1.315-.322 1.547-2.269-.472-1.343 6.463z"/></svg>