<svg xmlns="http://www.w3.org/2000/svg" width="555.75" height="180"><path fill="#C66029" d="M0 0h555.75v180H0z"/><g fill="#D06A34"><path d="M310.922 106.288h7.169v7.17h-7.169zm0 23.032c0 6.439-1.169 7.937-4.55 11.314-2.835 2.837-7.119 7.119-7.119 13.967v1.641h30.506v-1.641c0-6.847-4.284-11.131-7.12-13.967-3.379-3.379-4.548-4.876-4.548-11.314v-11.364h-7.169v11.364zM171.227 95.741l-1.763 21.138h25.02l-1.761-21.138zm128.026 65.001h30.506v14.947h-30.506zm-132.121-15.885c.048 8.143 6.688 14.751 14.842 14.751 8.153 0 14.792-6.608 14.841-14.751l-1.956-23.479h-25.77l-1.957 23.479zm23.388-16.169a3.264 3.264 0 0 1 3.261 3.261 3.265 3.265 0 0 1-3.261 3.261 3.265 3.265 0 0 1-3.261-3.261 3.263 3.263 0 0 1 3.261-3.261zm-4.274 10.681c1.799 0 3.262 1.463 3.262 3.261s-1.463 3.262-3.262 3.262c-1.798 0-3.261-1.464-3.261-3.262s1.462-3.261 3.261-3.261zm-1.012 11.807c0 1.8-1.462 3.262-3.261 3.262s-3.261-1.464-3.261-3.262c0-1.797 1.462-3.26 3.261-3.26s3.261 1.462 3.261 3.26zm-7.533-26.762a3.264 3.264 0 0 1 3.261 3.262 3.266 3.266 0 0 1-3.261 3.262 3.266 3.266 0 0 1-3.261-3.262 3.263 3.263 0 0 1 3.261-3.262zm-4.273 12.818c1.799 0 3.262 1.463 3.262 3.261s-1.463 3.261-3.262 3.261-3.262-1.463-3.262-3.261 1.463-3.261 3.262-3.261zm-50.981-84.06l-1.521-.521v-24.36h-11.718v24.36l-1.521.521a22.756 22.756 0 0 0-15.375 21.523v87.18a4.513 4.513 0 0 0 4.508 4.509h36.494a4.512 4.512 0 0 0 4.508-4.509v-87.18a22.757 22.757 0 0 0-15.375-21.523zm11.767 110.953H95.917v-4.5h38.297v4.5zm.336-32.103H95.583V93.06h38.967v38.962zm333.886 4.535h-45.018L426.736 180h38.381z"/><path d="M100.083 97.56h29.967v29.966h-29.967zm9.125-86.47h11.718v12.7h-11.718zm361.777 92.095h-50.119l2.207 28.872h45.706zM64.168 123.807H26.694l1.052 11.049h35.122zM29.373 73.705h18.122l3.606-27.655H19.01l3.326 21.618c.503 3.271 3.726 6.037 7.037 6.037zm31.153-6.038l3.327-21.618H55.64l-3.608 27.655h1.457c3.311.001 6.534-2.764 7.037-6.037zm-6.805-41.714H15.918l2.4 15.597h33.369zM176.614 0v13.611c0 .969-.621 1.828-1.54 2.135-9.206 3.068-13.681 10.459-13.681 22.597v30.439c0 .857.699 1.555 1.555 1.555h38.05c.857 0 1.555-.698 1.555-1.555V38.343c0-12.138-4.475-19.529-13.681-22.597a2.251 2.251 0 0 1-1.538-2.135V0h-10.72zm16.775 28.482a2.25 2.25 0 0 1 2.25 2.25v11.416a2.25 2.25 0 0 1-2.25 2.25h-22.83a2.25 2.25 0 0 1-2.25-2.25V30.732a2.25 2.25 0 0 1 2.25-2.25h22.83zM28.174 139.356l3.836 40.296c.011.117.004.233-.002.348h25.55l4.781-40.644H28.174zm4.358 5.524c0-1.692 1.377-3.068 3.069-3.068s3.069 1.376 3.069 3.068c0 1.693-1.377 3.069-3.069 3.069s-3.069-1.376-3.069-3.069zm6.956 34.167c-1.692 0-3.069-1.376-3.069-3.068s1.377-3.069 3.069-3.069 3.069 1.377 3.069 3.069-1.377 3.068-3.069 3.068zm1.944-19.437c-1.692 0-3.069-1.376-3.069-3.068s1.377-3.069 3.069-3.069 3.069 1.377 3.069 3.069-1.377 3.068-3.069 3.068zm7.774 9.72a3.073 3.073 0 0 1-3.068-3.069 3.072 3.072 0 0 1 3.068-3.069 3.073 3.073 0 0 1 3.069 3.069 3.073 3.073 0 0 1-3.069 3.069zm3.887-17.493a3.072 3.072 0 0 1-3.069-3.067 3.074 3.074 0 0 1 3.069-3.071 3.074 3.074 0 0 1 3.069 3.071 3.072 3.072 0 0 1-3.069 3.067zM27.521 180l-3.868-40.644h-3.13L25.305 180zM66.943 25.953h-8.682L56.227 41.55h8.318zm-48.249 97.854l1.3 11.049h3.231l-1.052-11.049zM65.266 0H53.771c.216 2.996 2.696 5.375 5.748 5.375S65.049 2.996 65.266 0z"/><path d="M172.809 32.984h18.33v6.914h-18.33zm225.29 8.47h-40.814l-2.655 19.91h46.125z"/><path d="M466.999 0a18.993 18.993 0 0 1 1.078 6.28h-4.265c0-2.246-.506-4.374-1.406-6.28h-9.002l-.316 1.266-4.137-1.035.058-.231h-21.681a9.873 9.873 0 0 0-2.247 6.28h-4.265c0-2.256.542-4.383 1.483-6.28H358.33c.523 1.735.812 3.57.812 5.474 0 10.487-8.533 19.02-19.022 19.02v-3.995c8.287 0 15.028-6.74 15.028-15.025 0-1.933-.38-3.775-1.048-5.474h-27.96a14.915 14.915 0 0 0-1.049 5.474h-3.994c0-1.903.29-3.739.811-5.474h-27.217l5.493 9.157h42.406l-27.025 45.045V80.32h13.441v3.994h-30.875V80.32h13.439V54.2L284.546 9.157h10.981L290.032 0h-98.198v12.038c10.1 4.011 15.219 12.852 15.219 26.306v30.439a6.062 6.062 0 0 1-6.055 6.055h-38.05a6.062 6.062 0 0 1-6.055-6.055v-30.44c0-13.454 5.119-22.295 15.221-26.306V0H69.789c-.208 5.198-4.283 9.412-9.424 9.833l-1.517 11.62h10.719c.06 0 .115.014.173.018.057.004.112 0 .168.009.018.002.034.01.052.014.083.015.162.04.242.063.064.019.129.035.191.06.071.028.136.064.204.099.064.033.13.064.189.103.059.037.11.082.164.124.06.047.121.092.176.145.048.047.089.099.133.15.049.058.102.115.146.176.039.056.07.116.104.175.039.066.078.13.109.2.027.061.046.125.067.188.026.076.053.151.071.229.014.063.02.127.028.19.011.084.023.167.024.255 0 .018.006.035.006.051 0 .057-.012.109-.017.165-.004.06 0 .117-.009.177L64.97 68.35c-.835 5.434-5.986 9.854-11.484 9.854H29.373c-5.497 0-10.648-4.42-11.484-9.854l-6.816-44.303c-.009-.06-.005-.117-.009-.177-.003-.055-.017-.107-.017-.164 0-.018.005-.035.006-.052.001-.086.013-.169.025-.254.009-.063.014-.129.028-.191.018-.079.045-.152.071-.228.022-.064.041-.129.069-.19.03-.069.07-.131.106-.196.035-.061.067-.123.107-.18.043-.061.094-.115.141-.171.046-.051.089-.107.139-.155.053-.052.114-.096.172-.142.055-.044.108-.089.167-.127.06-.039.124-.069.187-.101.069-.036.135-.072.206-.101.062-.023.126-.04.191-.059.08-.024.159-.047.242-.063.018-.003.034-.01.052-.014.058-.009.115-.004.172-.009s.111-.017.169-.017H54.31L55.904 9.21C52.135 7.786 49.413 4.22 49.246 0H0v180h20.774l-6.843-58.181a2.248 2.248 0 0 1 2.235-2.513h5.58l-1.019-10.701a8.944 8.944 0 0 0-8.936-8.122h-7.29a2.25 2.25 0 0 1 0-4.5h7.289c6.979 0 12.748 5.24 13.416 12.193l1.06 11.13h40.433a2.249 2.249 0 0 1 2.235 2.513L62.089 180h117.634v-16.033c-9.607-1.121-17.091-9.299-17.091-19.2 0-.062.002-.124.008-.187l4.273-51.275a2.25 2.25 0 0 1 2.242-2.063h25.638c1.17 0 2.146.896 2.244 2.063l4.271 51.275c.005.063.007.124.007.187 0 9.903-7.484 18.08-17.092 19.2V180h110.53v-25.399c0-8.71 5.489-14.199 8.438-17.147 2.739-2.737 3.231-3.229 3.231-8.133v-25.283a2.252 2.252 0 0 1 2.25-2.25h11.669a2.251 2.251 0 0 1 2.25 2.25v25.283c0 4.903.493 5.396 3.229 8.133 2.949 2.948 8.438 8.438 8.438 17.147V180h87.964l-6.026-78.894a2.245 2.245 0 0 1 .593-1.702 2.255 2.255 0 0 1 1.65-.721h54.974a2.25 2.25 0 0 1 2.242 2.423L469.631 180h86.119V0h-88.751zM37.545 111.021a3.074 3.074 0 0 1-3.069-3.07 3.073 3.073 0 0 1 3.069-3.069 3.074 3.074 0 0 1 3.069 3.069 3.074 3.074 0 0 1-3.069 3.07zm11.661 5.83a3.073 3.073 0 0 1-3.068-3.069 3.071 3.071 0 0 1 3.068-3.068 3.072 3.072 0 0 1 3.069 3.068 3.073 3.073 0 0 1-3.069 3.069zm5.83-9.719a3.072 3.072 0 0 1-3.069-3.067c0-1.693 1.377-3.069 3.069-3.069s3.069 1.377 3.069 3.069-1.377 3.067-3.069 3.067zm87.285 54.743c0 4.968-4.041 9.011-9.008 9.011H96.82c-4.967 0-9.008-4.043-9.008-9.011v-87.18a27.261 27.261 0 0 1 16.896-25.208V28.291h-2.482v-4.5h2.482V6.59h20.718v17.2h1.805v4.5h-1.805v21.197a27.26 27.26 0 0 1 16.895 25.208v87.18zm132.777-12.415c0 4.399-8.611 6.628-25.596 6.628-16.982 0-25.595-2.229-25.595-6.628V73.591c0-7.495 5.272-15.749 9.508-22.382 2.383-3.729 5.083-7.958 5.083-9.718V18.145a2.25 2.25 0 0 1 2.25-2.25h17.509a2.25 2.25 0 0 1 2.25 2.25V41.49c0 1.761 2.7 5.989 5.083 9.718 4.236 6.633 9.508 14.887 9.508 22.382v75.87zm104.844-51.144v32.215h9.957c1.241 0 2.25 1.008 2.25 2.25s-1.009 2.25-2.25 2.25h-24.412c-1.241 0-2.25-1.008-2.25-2.25s1.009-2.25 2.25-2.25h9.956V98.316c-14.774-1.151-26.446-13.533-26.446-28.599 0-.101.007-.2.021-.298l4.07-30.514a2.249 2.249 0 0 1 2.229-1.952h44.754c1.127 0 2.081.834 2.229 1.952l4.069 30.514c.013.099.021.198.021.298-.001 15.065-11.673 27.447-26.448 28.599zm66.725-47.315V78.01h12.783v4.265h-29.835V78.01H442.4V51.001c-14.129-1.07-25.292-12.658-25.292-26.761 0-4.783 1.303-9.481 3.768-13.584l.622-1.036h46.071l.622 1.036a26.393 26.393 0 0 1 3.767 13.584c0 14.103-11.163 25.691-25.291 26.761zm85.992-29.494a2.805 2.805 0 0 1 2.803 2.801 2.805 2.805 0 0 1-2.803 2.802 2.804 2.804 0 0 1-2.801-2.802 2.803 2.803 0 0 1 2.801-2.801zm-5.052 11.758a2.805 2.805 0 0 1-2.802 2.802 2.805 2.805 0 0 1-2.803-2.802 2.804 2.804 0 0 1 5.605 0zm-3.905-16.237a2.805 2.805 0 0 1 2.801 2.801 2.805 2.805 0 0 1-2.801 2.803 2.805 2.805 0 0 1-2.802-2.803 2.804 2.804 0 0 1 2.802-2.801zm23.497 99.097c0 .595-.235 1.164-.656 1.584l-6.719 6.718c-.42.42-.988.657-1.583.657h-40.309a2.236 2.236 0 0 1-1.583-.657l-6.72-6.718a2.235 2.235 0 0 1-.656-1.584V55.66c0-.594.235-1.164.656-1.583l9.615-9.613h-1.312a2.238 2.238 0 1 1 0-4.478h8.03l-5.135-5.136a2.243 2.243 0 0 1 0-3.166 2.237 2.237 0 0 1 3.166 0l8.302 8.301h25.948a2.239 2.239 0 1 1 0 4.478h-1.312l9.614 9.613c.42.42.655.989.655 1.583l-.001 60.466z"/><path d="M354.03 65.864l-.535 4c.079 13.275 10.902 24.049 24.196 24.049 13.295 0 24.118-10.774 24.197-24.049l-.535-4H354.03zm77.658-51.977h-7.739a22.116 22.116 0 0 0-2.574 10.354c0 9.402 5.929 17.474 14.326 20.868-3.104-4.885-5.057-12.354-5.057-20.868 0-3.57.364-7.094 1.044-10.354zm21.309 0h-16.928c-.747 3.211-1.161 6.742-1.161 10.354 0 13.302 5.068 22.575 9.618 22.583h.017c4.55-.009 9.616-9.281 9.616-22.583-.001-3.616-.415-7.149-1.162-10.354zM256.007 41.49v-9.422h-13.009v9.422c0 3.075-2.555 7.075-5.791 12.141-3.92 6.138-8.8 13.778-8.8 19.959v75.409c1.594 1.102 8.97 2.589 21.095 2.589 12.126 0 19.501-1.486 21.096-2.589V73.591c0-6.181-4.88-13.821-8.8-19.959-3.236-5.066-5.791-9.068-5.791-12.142zM457.38 13.887c.68 3.259 1.044 6.781 1.044 10.354 0 8.515-1.952 15.984-5.056 20.868 8.399-3.395 14.326-11.465 14.326-20.868 0-3.613-.887-7.169-2.574-10.354h-7.74zm48.198 30.575l-12.125 12.125v58.611l5.406 5.406h38.455l5.408-5.406V56.587l-12.124-12.125zm-262.58-24.067h13.009v7.172h-13.009zM291.6 13.15l6.782 11.309h6.326l-6.785-11.309zm15.505 15.304h-6.326l12.788 21.313 12.788-21.313h-14.591l5.548 9.244-3.427 2.055zm28.433-15.304h-32.957l6.785 11.309h19.387z"/></g></svg>