<svg width="76" height="76" xmlns="http://www.w3.org/2000/svg" xmlns:xlink="http://www.w3.org/1999/xlink"><defs><path id="a" d="M38 0c20.986 0 38.001 17.014 38.001 38S58.986 76.002 38 76.002C17.014 76.002 0 58.986 0 38 0 17.014 17.014 0 38 0z"/><path id="b" d="M62.498 46.945a.665.665 0 0 1-.181.471.595.595 0 0 1-.458.195H48.32a.635.635 0 0 1-.472-.195.633.633 0 0 1-.195-.471V36.818c0-.203.064-.365.195-.486a.67.67 0 0 1 .472-.179h3.163a.65.65 0 0 0 .472-.195.641.641 0 0 0 .193-.472V33.71a.603.603 0 0 0-.193-.458.675.675 0 0 0-.472-.181H41.272a.668.668 0 0 0-.472.181.597.597 0 0 0-.194.458v1.776c0 .186.064.343.194.472a.643.643 0 0 0 .472.195h2.637a.67.67 0 0 1 .47.179.63.63 0 0 1 .195.486v10.127a.633.633 0 0 1-.195.471.634.634 0 0 1-.47.195h-2.637a.641.641 0 0 0-.472.193.644.644 0 0 0-.194.473v1.748a.64.64 0 0 0 .194.471.635.635 0 0 0 .472.195h23.667a.635.635 0 0 0 .472-.195.644.644 0 0 0 .195-.471v-3.912a.649.649 0 0 0-.195-.473.641.641 0 0 0-.472-.193h-1.775a.643.643 0 0 0-.473.193.647.647 0 0 0-.193.473v.832z"/><path id="c" d="M30.256 25.834a.667.667 0 0 0-.472.181.597.597 0 0 0-.193.458v1.776c0 .186.064.343.193.472a.644.644 0 0 0 .472.193h2.636c.205 0 .365.062.486.181a.661.661 0 0 1 .181.486v3.08a.672.672 0 0 1-.181.472.633.633 0 0 1-.486.193H19.019a.644.644 0 0 1-.472-.193.641.641 0 0 1-.193-.472v-3.08c0-.205.064-.365.193-.486a.671.671 0 0 1 .472-.181h2.636a.641.641 0 0 0 .472-.193.643.643 0 0 0 .195-.472v-1.776a.598.598 0 0 0-.195-.458.663.663 0 0 0-.472-.181h-9.684a.663.663 0 0 0-.472.181.597.597 0 0 0-.193.458v1.776c0 .186.064.343.193.472a.641.641 0 0 0 .472.193h2.636c.186 0 .343.062.472.181a.633.633 0 0 1 .195.486v10.127a.64.64 0 0 1-.195.471.635.635 0 0 1-.472.195h-2.636a.641.641 0 0 0-.472.193.643.643 0 0 0-.193.473v1.748c0 .186.064.342.193.471a.635.635 0 0 0 .472.195h9.684a.635.635 0 0 0 .472-.195.64.64 0 0 0 .195-.471V41.04a.645.645 0 0 0-.195-.473.641.641 0 0 0-.472-.193h-2.636a.639.639 0 0 1-.472-.195.639.639 0 0 1-.193-.471v-3.08c0-.186.064-.343.193-.472a.646.646 0 0 1 .472-.195h13.873c.205 0 .365.066.486.195a.672.672 0 0 1 .181.472v3.08a.67.67 0 0 1-.181.471.627.627 0 0 1-.486.195h-2.636a.644.644 0 0 0-.472.193.643.643 0 0 0-.193.473v1.748c0 .186.064.342.193.471a.639.639 0 0 0 .472.195h9.712a.642.642 0 0 0 .472-.195.639.639 0 0 0 .193-.471V41.04a.643.643 0 0 0-.193-.473.648.648 0 0 0-.472-.193h-2.665a.597.597 0 0 1-.458-.195.664.664 0 0 1-.179-.471V29.58a.66.66 0 0 1 .179-.486.623.623 0 0 1 .458-.181h2.665a.648.648 0 0 0 .472-.193.641.641 0 0 0 .193-.472v-1.776a.597.597 0 0 0-.193-.458.67.67 0 0 0-.472-.181h-9.712v.001z"/></defs><g fill="none" fill-rule="evenodd"><use fill="#F8F8F8" xlink:href="#a"/><use fill="#6B6A6A" xlink:href="#b"/><use fill="#6B6A6A" xlink:href="#c"/></g></svg>