<svg xmlns="http://www.w3.org/2000/svg"><defs><font id="sedgwick_coregular" horiz-adv-x="942"><font-face units-per-em="2048" ascent="1536" descent="-512"/><glyph horiz-adv-x="0"/><glyph horiz-adv-x="1024"/><glyph horiz-adv-x="1024"/><glyph horiz-adv-x="1024"/><glyph horiz-adv-x="1024"/><glyph unicode="!" horiz-adv-x="516" d="M117 1012v237q0 20 13 33.5t34 13.5h192q20 0 33.5-13t13.5-34v-237q0-18-1-46t-3-48l-57-543q-2-20-17.5-34.5T289 326h-58q-20 0-34.5 14T178 375l-57 543q-2 20-3 47.5t-1 46.5zm16-969v127q0 20 14.5 34.5T182 219h152q20 0 34.5-14.5T383 170V43q0-20-14.5-34.5T334-6H182q-20 0-34.5 14.5T133 43z"/><glyph unicode="&quot;" horiz-adv-x="819" d="M129 983v268q0 20 14.5 34.5T178 1300h152q20 0 34.5-14t14.5-35v-110q0-20-9.5-46t-19.5-42l-59-80q-12-16-35-27.5T213 934h-35q-20 0-34.5 14.5T129 983zm330 0v268q0 20 14 34.5t35 14.5h151q20 0 35-14t15-35v-110q0-20-8.5-46t-20.5-42l-59-80q-12-16-35-27.5T543 934h-35q-20 0-34.5 14.5T459 983z"/><glyph unicode="#" horiz-adv-x="1384" d="M66 393v82q0 20 14 34.5t35 14.5h178q20 0 34.5 14.5T342 573v162q0 20-14.5 34.5T293 784H115q-20 0-34.5 14.5T66 834v81q0 20 14 34t35 14h178q20 0 34.5 14t14.5 35v243q0 20 13.5 35t35.5 15h80q20 0 34.5-14.5T520 1255v-243q0-20 14.5-34.5T569 963h244q20 0 34.5 14t14.5 35v243q0 20 14.5 35t34.5 15h80q23 0 36-14.5t13-35.5v-243q0-20 14.5-34.5T1090 963h180q20 0 34.5-13.5T1319 915v-81q0-20-14.5-35t-34.5-15h-180q-20 0-35-14t-15-35V573q0-20 14.5-34.5T1090 524h180q20 0 34.5-14t14.5-35v-82q0-20-14.5-34.5T1270 344h-180q-20 0-35-13.5t-15-33.5V51q0-20-13-33.5T991 4h-80q-20 0-34.5 13.5T862 51v246q0 20-14 33.5T813 344H569q-20 0-34.5-13.5T520 297V51q0-20-14-33.5T471 4h-80q-23 0-36 13.5T342 51v246q0 20-14.5 33.5T293 344H115q-20 0-34.5 14.5T66 393zm454 180q0-20 14.5-34.5T569 524h244q20 0 34.5 14.5T862 573v162q0 20-14 34.5T813 784H569q-20 0-34.5-14T520 735V573z"/><glyph unicode="$" horiz-adv-x="1490" d="M74 784v260q0 20 11 44t28 34l192 146q16 12 42 20t46 8h189q23 0 36 14.5t13 35.5v55q0 23 14 36t35 13h131q20 0 33.5-13.5T858 1401v-55q0-20 14.5-35t34.5-15h217q20 0 46-7t44-17l170-109q16-10 21.5-29.5t-4.5-35.5l-70-111q-10-16-29.5-21t-37.5 5l-115 73q-16 10-43 17.5t-47 7.5H907q-20 0-34.5-14.5T858 1020V809q0-20 14.5-34.5T907 760h189q20 0 45.5-8.5T1184 731l192-145q16-12 27.5-35t11.5-43V248q0-20-11-43t-28-35L1184 25q-16-12-42-20.5T1096-4H907q-20 0-34.5-14.5T858-53v-56q0-20-13.5-34.5T811-158H680q-20 0-34.5 14.5T631-109v56q0 20-13.5 34.5T582-4H399q-20 0-46.5 7T309 20L106 143q-18 10-23 30t5 36l68 113q10 16 29.5 21t37.5-5l150-90q16-10 42.5-17.5T463 223h119q23 0 36 14.5t13 34.5v211q0 20-13.5 34.5T582 532H393q-20 0-45.5 8.5T305 561L113 707q-16 12-27.5 34.5T74 784zm227 115q0-20 11.5-44t27.5-34l41-30q16-12 42-21.5t46-9.5h113q23 0 36 14t13 35v211q0 20-13.5 34.5T582 1069H469q-20 0-46-8t-42-21l-41-30q-16-12-27.5-35T301 932v-33zm557-627q0-20 14.5-34.5T907 223h113q20 0 46 9.5t42 19.5l41 31q16 12 27.5 34.5T1188 362v31q0 23-11.5 45.5T1149 473l-41 31q-16 12-42 20t-46 8H907q-20 0-34.5-14T858 483V272z"/><glyph unicode="&amp;" horiz-adv-x="1503" d="M102 205v196q0 20 10.5 44t26.5 38l199 174q14 12 15 32t-13 34L223 840q-14 14-24.5 37.5T188 922v149q0 20 10.5 44t24.5 38l109 109q14 14 38.5 24t45.5 10h354q20 0 45-9t41-23l113-99q16-14 26.5-36.5t10.5-45.5V918q0-20-10.5-44T969 838L825 711q-16-12-16-32t14-34l219-221q16-14 35-14t33 16l64 70q14 14 37.5 24t43.5 10h70q20 0 34.5-13t14.5-34v-98q0-20-12-34.5t-29-14.5q-16 0-37.5-10.5T1260 299l-11-10q-14-16-14-37t14-35l189-188q14-14 10-23.5T1423-4h-178q-20 0-43.5 9T1161 29l-43 45q-14 14-33.5 14T1051 72L958-29q-14-14-37.5-24T877-63H348q-20 0-43.5 10T266-29L135 119q-14 16-23.5 39.5T102 205zm195 74q0-20 9-45t24-39l24-27q12-16 36-26.5t44-10.5h357q20 0 43.5 10.5T872 168l41 43q12 14 12.5 34.5T909 281L612 565q-16 14-35.5 15.5T541 567L334 393q-16-12-26.5-35.5T297 313v-34zm88 708q0-14 10.5-32.5T420 922l131-119q14-14 34.5-15.5T623 801l151 125q16 14 26.5 32.5T811 991v23q-2 14-11 30.5t-22 28.5q-14 10-37.5 19.5T696 1102H496q-20 0-43-9.5t-37-23.5q-12-12-20.5-29.5T385 1010v-23z"/><glyph unicode="'" horiz-adv-x="462" d="M127 981v268q0 20 14.5 34.5T176 1298h152q20 0 34.5-14t14.5-35v-110q0-20-9.5-46t-19.5-42l-59-80q-12-16-35-27.5T211 932h-35q-20 0-34.5 14.5T127 981z"/><glyph unicode="(" horiz-adv-x="659" d="M113 49v1217q0 20 11 43.5t28 33.5l192 146q16 12 42 20.5t46 8.5h135q23 0 36-13.5t13-34.5v-32q0-20-13-34.5t-36-14.5h-75q-20 0-46-9.5t-43-19.5l-41-33q-16-10-27-33.5t-11-44.5V66q0-20 11-44t27-34l41-33q16-10 42-19.5t47-9.5h75q23 0 36-14t13-35v-33q0-20-13-33.5T567-203H432q-20 0-46 8.5T344-174L152-29q-16 10-27.5 34T113 49z"/><glyph unicode=")" horiz-adv-x="661" d="M43-123q0 20 14.5 34.5T92-74h76q20 0 46 9.5T256-45l41 33q16 10 27.5 33.5T336 66v1183q0 20-11.5 44t-27.5 34l-41 33q-16 10-42 19.5t-46 9.5H92q-20 0-34.5 14T43 1438v32q0 20 14.5 34t34.5 14h135q20 0 46-8.5t42-20.5l193-146q16-10 27.5-33.5T547 1266V49q0-20-11.5-43.5T508-29L315-174q-16-12-41.5-20.5T227-203H92q-20 0-34.5 13.5T43-156v33z"/><glyph unicode="*" horiz-adv-x="522" d="M76 1126v17q0 20 20 20l72-2q8-2 9 2t-5 11l-51 49q-14 14 0 28l10 11q14 14 29 0l49-54q12-10 12 6l-2 72q0 20 21 21h16q18 0 18-21l-2-72q0-18 13-6l49 54q14 14 28 0l13-11q12-14-2-28l-51-49q-6-6-5.5-10.5t9.5-2.5l73 2q18 0 19-20v-17q0-18-19-18l-73 2q-20 0-4-12l51-51q14-10 2-27l-13-12q-14-12-28 2l-49 51q-12 16-13-4l2-74q0-18-18-18h-16q-20 0-21 18l2 74q0 16-12 4l-49-51q-14-14-29-2l-10 12q-14 14 0 27l51 51q16 12-4 12l-72-2q-20 0-20 18z"/><glyph unicode="+" horiz-adv-x="892" d="M25 621v69q0 23 16 39t39 16h221q23 0 39 16.5t16 39.5v223q0 23 16.5 39t39.5 16l67-2q23 0 39.5-16.5T535 1022V801q0-23 16-39.5t39-16.5h223q23 0 39-16t16-39v-69q0-23-16-39.5T813 565H590q-23 0-39-16.5T535 510V287q0-23-16.5-39.5T479 231h-67q-23 0-39.5 16.5T356 287v223q0 23-16 39t-39 16H80q-23 0-39 16.5T25 621z"/><glyph unicode="," horiz-adv-x="464" d="M127 47v127q0 20 14.5 34.5T176 223h152q20 0 34.5-14t14.5-35V47q0-20-9.5-46T348-41l-59-80q-12-16-35-27.5T211-160h-35q-20 0-34.5 14.5T127-111V47z"/><glyph unicode="-" d="M127 582v80q0 20 14.5 33.5T176 709h590q23 0 36-13.5t13-33.5v-80q0-20-13.5-33.5T766 535H176q-20 0-34.5 13T127 582z"/><glyph unicode="." horiz-adv-x="501" d="M123 47v127q0 20 14.5 34.5T172 223h152q20 0 34.5-14t14.5-35V47q0-20-14.5-33.5T324 0H172q-20 0-34.5 13.5T123 47z"/><glyph unicode="/" horiz-adv-x="802" d="M23-172l591 1630q6 18 25.5 31.5T680 1503h70q20 0 29-13t3-32L190-172q-6-20-24.5-33.5T127-219H57q-23 0-32 13t-2 34z"/><glyph unicode="0" horiz-adv-x="2017" d="M121 258v784q0 20 10 44t27 38l159 146q16 12 40 22.5t46 10.5h1209q20 0 44.5-10.5t41.5-22.5l160-146q16-14 26-37.5t10-44.5V258q0-20-10-44t-26-38L1698 33q-16-14-41-23.5T1612 0H403q-23 0-46 9t-40 24L158 176q-16 14-26.5 38T121 258zm227 164q0-20 12.5-27.5T391 397l1077 652q16 10 15.5 17t-21.5 7H489q-20 0-44.5-9t-38.5-24l-21-16q-16-14-26.5-37.5T348 942V422zm188-187.5q1-7.5 21-7.5h969q20 0 43.5 9.5T1610 260l20 19q16 14 26.5 37.5T1667 360v517q0 20-13.5 27t-29.5-3L551 252q-16-10-15-17.5z"/><glyph unicode="1" horiz-adv-x="1026" d="M119 49v129q0 20 14 34.5t35 14.5h194q20 0 35 14.5t15 34.5v748q0 23-13.5 32t-33.5 5l-199-55q-20-6-33.5 4t-13.5 30v131q0 20 13 39t34 23l207 55q20 6 48 10.5t48 4.5h121q20 0 34.5-14.5T639 1253V276q0-20 14.5-34.5T688 227h234q20 0 34.5-14t14.5-35V49q0-20-14.5-34.5T922 0H168q-20 0-34.5 14.5T119 49z"/><glyph unicode="2" horiz-adv-x="2025" d="M129 49v402q0 20 10.5 43.5T166 530l160 144q16 12 40.5 22.5T412 707h1126q20 0 45 8t41 20l12 10q16 12 27.5 35t11.5 43v123q0 20-10 44t-27 36l-20 18q-16 14-40 23.5t-44 9.5H539q-20 0-46-8t-42-18l-54-37q-16-12-28.5-29.5T356 954q0-12-14-21t-35-9H178q-20 0-34.5 14T129 973v289q0 20 14.5 33.5T178 1309h129q20 0 34.5-11.5T356 1270t9.5-17.5T387 1268q14 16 36.5 26.5T467 1305h1153q20 0 45-9.5t41-23.5l160-144q16-14 26.5-37.5t10.5-43.5V713q0-20-11.5-43t-27.5-35l-160-127q-16-12-42-21.5t-46-9.5H498q-20 0-45-9t-41-22l-19-18q-16-12-26.5-35.5T356 348v-72q0-20 14.5-34.5T406 227h1447q20 0 35-14t15-35V49q0-20-14.5-34.5T1853 0H178q-20 0-34.5 14.5T129 49z"/><glyph unicode="3" horiz-adv-x="2023" d="M129 49v289q0 20 14.5 34.5T178 385h129q20 0 34.5-9t14.5-22q0-12 12.5-29.5T397 297l54-37q16-12 41.5-20.5T539 231h995q20 0 44 9.5t40 23.5l20 19q16 14 26.5 37.5T1675 365v55q0 20-11 43.5t-28 36.5l-10 8q-16 12-40.5 21.5T1538 539H698q-20 0-34.5 14T649 588v129q0 20 14.5 34.5T698 766h840q23 0 47.5 9t40.5 22l10 8q16 12 27.5 34.5T1675 883v57q0 20-10 44t-27 38l-20 18q-16 12-40 22.5t-44 10.5H539q-20 0-46-8t-42-21l-54-36q-16-10-28.5-27.5T356 950q0-12-14-21t-35-9H178q-20 0-34.5 14T129 969v286q0 20 14.5 35t34.5 15h129q20 0 34.5-12.5T356 1264t9.5-17.5T387 1262q14 16 36.5 27t43.5 11h1153q20 0 45-9t41-23l160-146q16-12 26.5-35.5t10.5-44.5V772q0-20-11.5-42.5T1864 694l-15-12q-16-12-16-29.5t16-29.5l15-13q16-12 27.5-34.5T1903 530V262q0-20-10.5-43.5T1866 180L1706 37q-16-14-41-23.5T1620 4H467q-20 0-43 10.5T387 41q-12 16-21.5 15T356 39t-14-27.5T307 0H178q-20 0-34.5 14.5T129 49z"/><glyph unicode="4" horiz-adv-x="1841" d="M20 469v129q0 23 12.5 43.5T63 672l1074 606q18 10 44.5 17.5t47.5 7.5h129q23 0 36-14.5t13-35.5V696q0-20 14.5-34.5T1456 647h244q20 0 34.5-13t14.5-36V469q0-20-14.5-34.5T1700 420h-244q-20 0-34.5-14.5T1407 371v-95q0-20 14.5-34.5T1456 227h234q23 0 36-14t13-35V49q0-20-13.5-34.5T1690 0H936q-20 0-34.5 14.5T887 49v129q0 20 14 34.5t35 14.5h194q20 0 35 14.5t15 34.5v95q0 20-14.5 34.5T1130 420H70q-20 0-35 14.5T20 469zm468.5 185.5q.5-7.5 21.5-7.5h620q20 0 35 14.5t15 34.5v285q0 20-12.5 28.5t-30.5-1.5L504 672q-16-10-15.5-17.5z"/><glyph unicode="5" horiz-adv-x="2023" d="M129 49v289q0 20 14.5 34.5T178 387h129q20 0 34.5-9t14.5-24q0-12 12.5-29.5T397 297l54-37q16-12 41.5-20.5T539 231h995q20 0 44 9.5t40 23.5l20 19q16 14 26.5 37.5T1675 365v120q0 20-11 44t-28 36l-12 8q-16 12-40.5 21.5T1538 604H567q-20 0-46.5-7T477 580l-78-50q-18-10-44.5-17t-47.5-7H178q-20 0-34.5 14.5T129 555v707q0 20 14.5 33.5T178 1309h1675q20 0 35-13.5t15-33.5v-132q0-20-14.5-34.5T1853 1081H406q-20 0-35-14t-15-35V821q0-20 12.5-27.5T399 797l15 10q16 10 42.5 17t47.5 7h1112q20 0 46-9t42-21l160-125q16-12 27.5-36t11.5-44V262q0-20-10.5-43.5T1866 180L1706 37q-16-14-41-23.5T1620 4H467q-20 0-43 10.5T387 41q-12 16-21.5 15T356 39t-14-27.5T307 0H178q-20 0-34.5 14.5T129 49z"/><glyph unicode="6" horiz-adv-x="2009" d="M123 236v806q0 20 10 44t27 38l159 146q16 12 40 21t47 9h1153q20 0 45.5-8t42.5-18l208-146q16-12 28.5-33.5t12.5-43.5v-84q0-20-14-33.5t-35-13.5h-131q-20 0-33.5 8t-13.5 22q0 12-12 29.5t-29 30.5l-53 34q-16 12-42 20.5t-46 8.5H492q-20 0-45-9t-39-24l-21-18q-16-12-26.5-35.5T350 940V762q0-20 11.5-26.5T389 739t42 18.5 48 8.5h1098q20 0 46-8t42-21l193-145q16-12 27-34.5t11-43.5V252q0-20-11-43t-27-35L1665 29q-16-12-42-20.5T1577 0H410q-23 0-47.5 9T322 31L162 156q-16 14-27.5 36.5T123 236zm227 110q0-20 11.5-42.5T389 268l12-10q16-12 41-21.5t45-9.5h1014q20 0 45 9.5t41 21.5l43 31q16 12 27.5 34.5T1669 367v32q0 20-11 43t-28 35l-43 31q-16 12-40.5 21.5T1501 539H549q-20 0-47-8.5T459 510l-68-45q-16-12-28.5-33.5T350 387v-41z"/><glyph unicode="7" horiz-adv-x="1814" d="M80 969v288q0 20 14.5 35t34.5 15h129q20 0 34.5-12.5T307 1266t9.5-17.5T338 1264q14 16 36.5 27.5T418 1303h1265q20 0 35-14.5t15-35.5v-172q0-20-9.5-44.5T1702 995l-592-729q-12-16-7-27.5t25-11.5h175q20 0 34.5-14t14.5-35V49q0-20-14.5-34.5T1303 0H549q-23 0-36 14.5T500 49v129q0 20 13 34.5t36 14.5h188q20 0 44 11.5t36 27.5l625 770q12 16 7 26.5t-26 10.5H489q-20 0-45.5-8t-42.5-18l-53-37q-16-12-28.5-29.5T307 950q0-12-14-21t-35-9H129q-20 0-34.5 14T80 969z"/><glyph unicode="8" horiz-adv-x="2015" d="M121 260v268q0 23 11 45.5t28 34.5l14 13q16 12 16 29.5T174 682l-14 10q-16 12-27.5 36T121 772v270q0 20 10 44t27 38l159 144q16 14 40 23t46 9h1209q20 0 44.5-9t41.5-23l160-144q16-14 26-37.5t10-44.5V772q0-20-11-43.5t-28-36.5l-14-10q-16-14-16-31.5t16-29.5l14-13q16-12 27.5-34.5T1894 528V260q0-23-10-45t-26-37L1698 33q-16-14-41-23.5T1612 0H403q-23 0-46 9t-40 24L158 178q-16 14-26.5 37T121 260zm227 100q0-20 10.5-43.5T385 279l21-17q14-14 25-23.5t13-9.5h1082q20 0 43.5 9.5T1610 262l20 17q16 14 26.5 37.5T1667 360v58q0 20-11 43.5t-28 36.5l-10 8q-16 12-41 21.5t-47 9.5H483q-20 0-44.5-9.5T397 506l-10-8q-16-12-27.5-36T348 418v-58zm0 523q0-20 11.5-43t27.5-35l10-8q16-14 41-22.5t45-8.5h1047q23 0 47.5 8t40.5 23l10 8q16 12 27.5 34.5T1667 883v57q0 20-10 44t-27 38l-20 18q-16 14-40 23.5t-44 9.5H489q-20 0-44.5-9t-38.5-24l-21-18q-16-14-26.5-37.5T348 940v-57z"/><glyph unicode="9" horiz-adv-x="2011" d="M115 250v84q0 20 14 34.5t35 14.5h129q20 0 34.5-9t14.5-22q0-14 12.5-31.5T383 293l53-37q16-12 42-20.5t46-8.5h996q20 0 43.5 10.5T1604 260l20 19q16 14 26.5 37.5T1661 360v132q0 20-12.5 26t-28.5-4q-16-12-42-19.5t-46-7.5H434q-20 0-46 8.5T346 516L154 662q-16 12-27.5 34.5T115 739v310q0 20 11 42.5t28 34.5l192 146q16 12 42 20t46 8h1182q14 0 35.5-8t38.5-20l159-127q16-12 27.5-35t11.5-45V258q0-20-10-44t-27-36L1692 33q-16-14-41-23.5T1606 0H453q-20 0-46 8t-42 21L156 172q-16 12-28.5 34.5T115 250zm227 604q0-20 11.5-44t27.5-36l41-31q16-12 41.5-20t46.5-8h952q20 0 47 8t43 18l68 47q16 10 28.5 33t12.5 43v90q0 20-11.5 44t-27.5 36l-12 8q-16 12-41 21.5t-45 9.5H510q-20 0-46-8t-42-21l-41-30q-16-12-27.5-35T342 934v-80z"/><glyph unicode=":" horiz-adv-x="509" d="M129 47v127q0 20 14.5 34.5T178 223h152q20 0 34.5-14t14.5-35V47q0-20-14.5-33.5T330 0H178q-20 0-34.5 13.5T129 47zm0 821v127q0 20 14.5 34.5T178 1044h152q20 0 34.5-14t14.5-35V868q0-20-14.5-34.5T330 819H178q-20 0-34.5 14.5T129 868z"/><glyph unicode=";" horiz-adv-x="471" d="M115 868v127q0 20 14 34.5t35 14.5h151q20 0 35-14t15-35V868q0-20-14.5-34.5T315 819H164q-20 0-34.5 14.5T115 868zm16-821v127q0 20 14.5 34.5T180 223h152q20 0 34.5-14t14.5-35V47q0-20-9.5-46T352-41l-59-80q-12-16-34.5-27.5T215-160h-35q-20 0-34.5 14.5T131-111V47z"/><glyph unicode="&lt;" horiz-adv-x="886" d="M10 668q0 23 25 34l616 359q8 4 15.5 6t17.5 2q39 0 55-33l15-24q12-23 5-48.5T729 926L315 686q-14-10-14-18t14-19l414-239q25-12 31-39 6-25-6-49l-15-23q-16-33-55-33-10 0-17.5 2t-15.5 6L35 631q-25 14-25 37z"/><glyph unicode="=" horiz-adv-x="1128" d="M127 444v66q0 23 16.5 40t40.5 17h758q23 0 40-17.5t17-39.5v-66q0-25-17-41t-40-16H184q-25 0-41 16.5T127 444zm0 357v65q0 25 16.5 41.5T184 924h758q23 0 40-16.5t17-41.5v-65q0-23-17-40.5T942 743H184q-25 0-41 17.5T127 801z"/><glyph unicode="&gt;" horiz-adv-x="884" d="M125 371q6 27 31 39l413 239q14 6 15 19 0 8-15 18L156 926q-25 12-31 39-6 25 6 47l14 24q16 33 56 33 16 0 32-10l617-357q25-12 24-34 0-23-24-37L233 274q-20-8-32-8-39 0-56 33l-14 23q-12 25-6 49z"/><glyph unicode="?" horiz-adv-x="1337" d="M57 846v203q0 20 11.5 43.5T96 1126l193 146q16 12 41.5 20t46.5 8h579q23 0 47.5-8t40.5-20l195-146q16-10 27.5-33.5t11.5-43.5V756q0-20-11.5-43t-27.5-35l-195-146q-16-10-40.5-19t-47.5-9h-73q-23 0-47.5-8.5T795 475l-41-31q-16-12-29.5-34.5T707 367l-2-27q-4-18-19.5-32.5T649 293h-65q-20 0-36 14.5T530 342l-8 137q-2 20 8.5 43t26.5 35l193 145q16 12 41.5 20.5T838 731h75q20 0 46 9.5t42 21.5l41 31q16 12 27.5 34.5T1081 870v66q0 20-11 42.5t-28 35.5l-41 30q-16 12-41.5 20.5T913 1073H420q-20 0-46-8t-42-21l-41-30q-16-12-27.5-35T252 936v-90q0-20-14.5-34.5T203 797h-97q-20 0-34.5 14T57 846zM487 49v127q0 20 14.5 33.5T537 223h151q23 0 36-13t13-34V49q0-20-13-34.5T688 0H537q-20 0-35 14.5T487 49z"/><glyph unicode="@" horiz-adv-x="1593" d="M121 68v813q0 20 10 43.5t27 38.5l149 135q16 14 40 23t46 9h824q20 0 43.5-9t39.5-23l152-135q14-14 24.5-38t10.5-44V307q0-23-10.5-45t-26.5-35l-147-123q-16-12-40-21t-42-9q-16 0-41 8t-41 20l-35 27q-16 12-38 11t-38-15l-4-2q-14-14-38.5-23.5T940 90H618q-20 0-44.5 9.5T535 123l-56 49q-16 14-26.5 37.5T442 254v416q0 20 11.5 42.5T481 748l51 38q16 12 41 21.5t45 9.5h287q20 0 34.5 3t14.5 7 14.5 7.5 35.5 3.5h81q20 0 35-14.5t15-35.5V360q0-20 10-43.5t26-35.5l13-9q16-14 36.5-14t36.5 12l13 11q16 14 27.5 36.5T1309 360v451q0 20-10.5 44t-26.5 38l-31 27q-14 14-38.5 23t-45.5 9H451q-20 0-45-9t-39-23l-31-27q-16-14-26.5-38T299 811V104q0-20 10-43.5T336 25l31-29q14-12 38.5-22.5T451-37h907q20 0 34.5-13t14.5-34v-49q0-20-14.5-34.5T1358-182H393q-23 0-46 9t-40 23L158-14q-16 14-26.5 37.5T121 68zm516 200q0-20 14.5-34.5T686 219h219q20 0 34.5 14.5T954 268v369q0 20-14 34.5T905 686H686q-20 0-34.5-14.5T637 637V268z"/><glyph unicode="A" horiz-adv-x="2355" d="M72 49v129q0 20 14 34.5t35 14.5h244q20 0 41.5 12.5T438 270l451 762q10 16 3 28.5t-28 12.5h-92q-23 0-36 14.5t-13 34.5v131q0 20 13.5 33.5T772 1300h813q20 0 34.5-13t14.5-34v-131q0-20-14-34.5t-35-14.5h-94q-20 0-26.5-12t3.5-29l449-762q10-18 31.5-30.5T1991 227h245q20 0 34-14t14-35V49q0-20-13.5-34.5T2236 0h-716q-20 0-35 14.5T1470 49v129q0 20 14.5 34.5T1520 227h108q23 0 29 12.5t-4 30.5l-76 127q-10 16-30.5 28.5T1503 438H852q-20 0-42-12t-32-29l-76-127q-10-18-2.5-30.5T727 227h109q20 0 34.5-14t14.5-35V49q0-20-14.5-34.5T836 0H121q-20 0-34.5 14.5T72 49zm868 599q6-12 27-13h422q20 0 27 12 3 5 3 11 0 8-6 18l-211 356q-4 8-8 15.5t-8 13.5q-4 8-8 12l-7-12-9-13.5-9-15.5-209-356q-6-10-6-19 0-4 2-9z"/><glyph unicode="B" horiz-adv-x="2136" d="M129 49v129q0 20 14.5 34.5T178 227h195q20 0 34.5 14.5T422 276v748q0 20-14.5 34.5T373 1073H178q-20 0-34.5 14.5T129 1122v131q0 20 14.5 35t34.5 15h1518q20 0 45.5-9.5t42.5-21.5l192-144q16-12 27.5-34.5t11.5-42.5V791q0-23-11-45.5t-28-34.5l-43-31q-16-12-16-29.5t16-27.5l43-33q16-12 27.5-35t11.5-43V252q0-20-11-43t-28-35L1784 29q-16-12-42-20.5T1696 0H178q-20 0-34.5 14.5T129 49zm520 227q0-20 14.5-34.5T698 227h922q20 0 46 9.5t42 19.5l41 33q16 10 27.5 33.5T1788 367v32q0 20-11.5 43t-27.5 35l-68 49q-16 12-40.5 20.5T1593 555H698q-20 0-34.5-14.5T649 506V276zm0 523q0-20 14.5-34.5T698 750h901q20 0 46 9t43 21l61 45q16 12 27.5 35t11.5 43v33q0 20-11.5 42.5T1749 1014l-41 30q-16 12-42 20.5t-46 8.5H698q-20 0-34.5-14.5T649 1024V799z"/><glyph unicode="C" horiz-adv-x="2013" d="M121 258v784q0 20 10 44t27 38l159 146q16 12 40 21t44 9h1155q20 0 39-13t25-32q6-18 14-18t15 18l2 5q6 18 24.5 32.5t38.5 14.5h131q20 0 34.5-14.5t14.5-35.5V969q0-20-14-33.5t-35-15.5h-131q-20 0-33.5 9t-13.5 21v78q0 18-13.5 31.5T1620 1073H489q-20 0-44.5-9t-38.5-24l-21-16q-16-14-26.5-37.5T348 942V360q0-20 10.5-43.5T385 279l21-19q14-14 38.5-23.5T489 227h1037q20 0 43.5 9.5T1610 260l20 19q16 14 26.5 33.5T1667 346q0 16 13.5 26.5T1714 383h131q20 0 34.5-14.5T1894 334v-76q0-20-10-44t-26-38L1698 33q-16-14-41-23.5T1612 0H401q-20 0-43.5 9T317 33L158 176q-16 14-26.5 38T121 258z"/><glyph unicode="D" horiz-adv-x="2138" d="M129 49v129q0 20 14.5 34.5T178 227h195q20 0 34.5 14.5T422 276v748q0 20-14.5 34.5T373 1073H178q-20 0-34.5 14.5T129 1122v131q0 20 14.5 35t34.5 15h1518q20 0 45.5-9.5t42.5-21.5l192-144q16-12 27.5-34.5t11.5-42.5V252q0-20-11-43t-28-35L1784 29q-16-12-42-20.5T1696 0H178q-20 0-34.5 14.5T129 49zm520 227q0-20 14.5-34.5T698 227h922q20 0 46 9.5t42 21.5l41 31q16 12 27.5 34.5T1788 367v569q0 20-11.5 42.5T1749 1014l-41 30q-16 12-42 20.5t-46 8.5H698q-20 0-34.5-14.5T649 1024V276z"/><glyph unicode="E" horiz-adv-x="2086" d="M129 49v129q0 20 14.5 34.5T178 227h195q20 0 34.5 14.5T422 276v748q0 23-14.5 36t-34.5 13H178q-20 0-34.5 14.5T129 1122v131q0 20 14.5 33.5T178 1300h1731q20 0 34.5-15t14.5-36V975q0-23-14.5-36t-34.5-13h-131q-20 0-34.5 13t-14.5 36v49q0 23-13.5 36t-34.5 13H698q-20 0-34.5-13t-14.5-36V801q0-20 14.5-33.5T698 754h525q20 0 34.5-14.5T1272 705v-99q0-20-14.5-34.5T1223 557H698q-20 0-34.5-13.5T649 508V276q0-20 14.5-34.5T698 227h983q20 0 34 14.5t14 34.5v80q0 20 14 35t35 15h131q20 0 34.5-14.5T1958 356V49q0-20-14.5-34.5T1909 0H178q-20 0-34.5 14.5T129 49z"/><glyph unicode="F" horiz-adv-x="2013" d="M129 49v129q0 20 14.5 34.5T178 227h195q20 0 34.5 14.5T422 276v748q0 23-14.5 36t-34.5 13H178q-20 0-34.5 14.5T129 1122v131q0 20 14.5 33.5T178 1300h1747q20 0 34.5-13t14.5-34V963q0-20-14-34t-35-14h-131q-20 0-34.5 13.5T1745 963v61q0 23-13.5 36t-33.5 13H698q-20 0-34.5-13t-14.5-36V797q0-20 14.5-34.5T698 748h557q20 0 35-13.5t15-34.5v-98q0-20-14.5-34.5T1255 553H698q-20 0-34.5-14.5T649 504V276q0-20 14.5-34.5T698 227h234q20 0 34.5-14t14.5-35V49q0-20-14.5-34.5T932 0H178q-20 0-34.5 14.5T129 49z"/><glyph unicode="G" horiz-adv-x="2226" d="M123 258v786q0 20 10 44t27 38l159 146q16 12 40 20t44 8h1156q20 0 38.5-13t24.5-32q6-18 14.5-18t14.5 18l2 5q6 18 24.5 32.5t38.5 14.5h131q20 0 34.5-14.5t14.5-35.5V969q0-20-14-33.5t-35-15.5h-131q-20 0-33.5 9t-13.5 21v78q0 18-13.5 31.5T1622 1073H492q-20 0-45-9t-39-24l-21-16q-16-14-26.5-37.5T350 942V362q0-20 10.5-43.5T387 281l21-19q14-14 38.5-23.5T492 229h966q20 0 47 7.5t43 17.5l78 47q16 10 29.5 31.5T1669 375v65q0 20-14.5 34.5T1620 489h-264q-20 0-34.5 14.5T1307 539v96q0 23 14 36t35 13h737q20 0 34.5-13.5T2142 635v-96q0-20-14-35t-35-15h-147q-20 0-35-14t-15-35V59q0-20-14-34.5T1847 10h-131q-20 0-33.5 8.5T1669 37t-13.5 10-29.5-10l-14-10q-16-10-43-18.5T1522 0H403q-20 0-43.5 9T319 33L160 176q-16 14-26.5 38T123 258z"/><glyph unicode="H" horiz-adv-x="2422" d="M129 49v129q0 20 14.5 34.5T178 227h195q20 0 34.5 14.5T422 276v748q0 23-14.5 36t-34.5 13H178q-20 0-34.5 14.5T129 1122v131q0 20 14.5 33.5T178 1300h715q20 0 34.5-13t14.5-34v-131q0-20-14.5-34.5T893 1073H698q-20 0-34.5-13t-14.5-36V797q0-20 14.5-34.5T698 748h1024q23 0 36.5 14t13.5 35v227q0 23-13.5 36t-36.5 13h-194q-20 0-34.5 14.5T1479 1122v131q0 20 14 33.5t35 13.5h717q20 0 34.5-13t14.5-34v-131q0-20-14.5-34.5T2245 1073h-197q-20 0-33.5-13t-13.5-36V276q0-20 13.5-34.5T2048 227h197q20 0 34.5-14t14.5-35V49q0-20-14.5-34.5T2245 0h-717q-20 0-34.5 14.5T1479 49v129q0 20 14 34.5t35 14.5h194q23 0 36.5 14.5T1772 276v228q0 20-13.5 34.5T1722 553H698q-20 0-34.5-14.5T649 504V276q0-20 14.5-34.5T698 227h195q20 0 34.5-14t14.5-35V49q0-20-14.5-34.5T893 0H178q-20 0-34.5 14.5T129 49z"/><glyph unicode="I" horiz-adv-x="1071" d="M129 49v129q0 20 14.5 34.5T178 227h195q20 0 34.5 14.5T422 276v752q0 20-14.5 34.5T373 1077H178q-20 0-34.5 13.5T129 1126v129q0 20 14.5 35t34.5 15h715q20 0 34.5-14.5T942 1255v-129q0-23-14.5-36t-34.5-13H698q-20 0-34.5-14t-14.5-35V276q0-20 14.5-34.5T698 227h195q20 0 34.5-14t14.5-35V49q0-20-14.5-34.5T893 0H178q-20 0-34.5 14.5T129 49z"/><glyph unicode="J" horiz-adv-x="1851" d="M37 240v5q0 17 10 31l78 105q12 16 31.5 18t36.5-8l178-135q16-10 41.5-19.5T459 227h622q23 0 47.5 9.5T1169 256l43 33q16 10 27.5 33.5T1251 367v657q0 23-14 36t-35 13h-196q-20 0-34 14.5t-14 34.5v131q0 20 13.5 33.5t34.5 13.5h716q20 0 35-13t15-34v-131q0-20-14.5-34.5T1722 1073h-194q-20 0-34.5-13t-14.5-36V252q0-20-11.5-43t-27.5-35L1245 29q-16-12-40.5-20.5T1159 0H383q-20 0-46 8t-42 21L55 209q-16 10-18 31z"/><glyph unicode="K" horiz-adv-x="2207" d="M129 49v129q0 20 14.5 34.5T178 227h195q20 0 34.5 14.5T422 276v748q0 23-14.5 36t-34.5 13H178q-20 0-34.5 14.5T129 1122v131q0 20 14.5 33.5T178 1300h715q20 0 34.5-13t14.5-34v-131q0-20-14.5-34.5T893 1073H698q-20 0-34.5-13t-14.5-36V633q0-20 12.5-26.5T690 610l705 439q16 10 14 17t-23 7h-71q-23 0-36 14.5t-13 34.5v131q0 20 13 33.5t36 13.5h715q20 0 34.5-13t14.5-34v-131q0-20-14.5-34.5T2030 1073h-175q-20 0-46.5-7t-43.5-17l-475-295q-16-10-18-27.5t14-30.5l522-438q16-12 41-21.5t45-9.5h136q20 0 34.5-14t14.5-35V49q0-20-14.5-34.5T2030 0h-715q-23 0-36 14.5T1266 49v129q0 20 13 34.5t36 14.5h178q20 0 24.5 9.5T1505 258l-393 330q-16 14-38.5 15t-39.5-9L690 381q-16-10-28.5-31.5T649 307v-31q0-20 14.5-34.5T698 227h195q20 0 34.5-14t14.5-35V49q0-20-14.5-34.5T893 0H178q-20 0-34.5 14.5T129 49z"/><glyph unicode="L" horiz-adv-x="2015" d="M129 49v129q0 20 14.5 34.5T178 227h195q20 0 34.5 14.5T422 276v748q0 23-14.5 36t-34.5 13H178q-20 0-34.5 14.5T129 1122v131q0 20 14.5 33.5T178 1300h754q20 0 34.5-13t14.5-34v-131q0-20-14.5-34.5T932 1073H698q-20 0-34.5-13t-14.5-36V276q0-20 14.5-34.5T698 227h1000q20 0 33.5 14.5T1745 276v62q0 20 14.5 34.5T1794 387h131q20 0 34.5-14.5T1974 338V49q0-20-14-34.5T1925 0H178q-20 0-34.5 14.5T129 49z"/><glyph unicode="M" horiz-adv-x="2633" d="M129 49v129q0 20 14.5 34.5T178 227h195q20 0 34.5 14.5T422 276v748q0 23-14.5 36t-34.5 13H178q-20 0-34.5 14.5T129 1122v131q0 20 14.5 35t34.5 15h516q23 0 44.5-12.5T770 1262l520-801q10-16 26.5-16.5T1343 461l521 801q10 16 31.5 28.5t41.5 12.5h519q20 0 34.5-14.5t14.5-35.5v-131q0-20-14.5-34.5T2456 1073h-195q-20 0-34.5-13t-14.5-36V276q0-20 14.5-34.5T2261 227h195q20 0 34.5-14t14.5-35V49q0-20-14.5-34.5T2456 0h-717q-20 0-33.5 14.5T1692 49v129q0 20 13 34.5t34 14.5h196q20 0 35 14.5t15 34.5v703q0 20-8.5 22.5T1958 987L1343 43q-10-16-25-16t-26 16L676 987q-10 16-18.5 15t-8.5-23V276q0-20 14.5-34.5T698 227h195q20 0 34.5-14t14.5-35V49q0-20-14.5-34.5T893 0H178q-20 0-34.5 14.5T129 49z"/><glyph unicode="N" horiz-adv-x="2293" d="M129 49v127q0 23 14.5 37t34.5 14h178q20 0 35 14.5t15 34.5v748q0 20-14.5 34.5T356 1073H178q-20 0-34.5 14.5T129 1122v129q0 23 14.5 37.5T178 1303h350q23 0 46.5-10.5T614 1270l1024-905q16-14 26.5-9.5T1675 383v641q0 23-14 37t-35 14h-194q-20 0-35 14.5t-15 34.5v127q0 23 14.5 37.5t35.5 14.5h714q20 0 34.5-14.5t14.5-37.5v-127q0-20-14-34.5t-35-14.5h-194q-20 0-34.5-14t-14.5-37V49q0-20-14.5-34.5T1853 0h-102q-20 0-45 9t-41 24L670 913q-16 12-26.5 8.5T633 895V276q0-20 14.5-34.5T682 227h211q20 0 34.5-14t14.5-37V49q0-20-14.5-34.5T893 0H178q-20 0-34.5 14.5T129 49z"/><glyph unicode="O" horiz-adv-x="2017" d="M121 258v784q0 20 10 44t27 38l159 146q16 12 40 21t44 9h1211q20 0 44.5-9t41.5-21l160-146q16-14 26-37.5t10-44.5V258q0-20-10-44t-26-38L1698 33q-16-14-41-23.5T1612 0H401q-20 0-43.5 9T317 33L158 176q-16 14-26.5 38T121 258zm227 102q0-20 10.5-43.5T385 279l21-19q14-14 38.5-23.5T489 227h1037q20 0 43.5 9.5T1610 260l20 19q16 14 26.5 37.5T1667 360v582q0 20-10 44t-27 38l-20 16q-16 14-40 23.5t-44 9.5H489q-20 0-44.5-9t-38.5-24l-21-16q-16-14-26.5-37.5T348 942V360z"/><glyph unicode="P" horiz-adv-x="2062" d="M129 49v129q0 20 14.5 34.5T178 227h195q20 0 34.5 14.5T422 276v748q0 20-14.5 34.5T373 1073H178q-20 0-34.5 14.5T129 1122v131q0 20 14.5 35t34.5 15h1518q20 0 45.5-9.5t42.5-21.5l192-144q16-12 27.5-34.5t11.5-42.5V791q0-23-11-45.5t-28-34.5l-192-144q-16-12-42-21t-46-9H698q-20 0-34.5-13.5T649 489V276q0-20 14.5-34.5T698 227h195q20 0 34.5-14t14.5-35V49q0-20-14.5-34.5T893 0H178q-20 0-34.5 14.5T129 49zm520 764q0-20 14.5-33.5T698 766h922q20 0 46 8t42 21l41 30q16 12 27.5 35t11.5 43v33q0 20-11.5 42.5T1749 1014l-41 30q-16 12-42 21.5t-46 9.5l-922-2q-20 0-34.5-14.5T649 1024V813z"/><glyph unicode="Q" horiz-adv-x="2043" d="M115 258v784q0 20 10 44t27 38l159 146q16 12 40 22.5t44 10.5h1211q20 0 44.5-10.5t41.5-22.5l159-146q16-14 26.5-37.5t10.5-44.5V258q0-20-7-41t-17-29q-10-10-7-26.5t17-30.5l37-37q14-14 14-33.5T1911 25l-70-68q-14-16-33.5-16T1772-43l-43 43q-14 14-30 19.5t-24-3.5q-10-6-29.5-11T1606 0H395q-20 0-43.5 9T311 33L152 176q-16 14-26.5 38T115 258zm227 102q0-20 10-43.5t27-37.5l20-19q14-14 39-23.5t45-9.5h969q20 0 24.5 10.5T1466 262l-96 96q-14 14-14 34t14 34l70 70q14 14 33.5 14t35.5-14l117-117q14-14 24.5-10t10.5 24v549q0 20-10.5 44t-26.5 38l-20 16q-16 14-40 23.5t-44 9.5H483q-20 0-44.5-9t-39.5-24l-20-16q-16-14-26.5-37.5T342 942V360z"/><glyph unicode="R" horiz-adv-x="2435" d="M129 49v129q0 20 14.5 34.5T178 227h195q20 0 34.5 14.5T422 276v748q0 23-14.5 36t-34.5 13H178q-20 0-34.5 14.5T129 1122v131q0 20 14.5 33.5T178 1300h1698q20 0 46-8t42-20l193-146q16-10 27-33.5t11-43.5V788q0-20-11-42.5t-27-34.5l-193-146q-16-10-42-19t-46-9h-279q-20 0-21-6.5t15-16.5l480-262q18-10 44.5-17.5t47.5-7.5h116q20 0 35-14t15-35V49q0-20-14.5-34.5T2279 0h-716q-20 0-33.5 14.5T1516 49v129q0 20 13 34.5t34 14.5h96q20 0 21 7.5t-15 17.5l-479 262q-16 10-44 16.5t-48 6.5H698q-20 0-34.5-14.5T649 487V276q0-20 14.5-34.5T698 227h195q20 0 34.5-14t14.5-35V49q0-20-14.5-34.5T893 0H178q-20 0-34.5 14.5T129 49zm520 764q0-20 14.5-34.5T698 764h1102q20 0 45 9t41 22l43 30q16 12 27.5 35t11.5 43v33q0 20-11 42.5t-28 35.5l-43 30q-16 12-40.5 20.5t-45.5 8.5H698q-20 0-34.5-13t-14.5-36V813z"/><glyph unicode="S" horiz-adv-x="1998" d="M113 788v261q0 20 11 43.5t28 33.5l192 146q16 12 42 20t46 8h1161q20 0 47-7t43-17l172-109q16-10 20.5-29.5t-5.5-35.5l-68-111q-10-16-30.5-21t-36.5 5l-117 74q-16 10-43 17t-47 7H508q-20 0-46-8t-42-21l-41-30q-16-12-27.5-35T340 936v-33q0-20 11-42.5t28-35.5l41-30q16-12 41.5-21.5T508 764h1059q20 0 45.5-8t42.5-21l192-145q16-12 27.5-35t11.5-43V252q0-20-11-43t-28-35L1655 29q-16-12-42-20.5T1567 0H438q-20 0-46.5 7T348 25L145 147q-18 10-23 30t5 38l68 111q10 16 30.5 21t36.5-5l150-90q16-10 42.5-17.5T502 227h989q20 0 45 9.5t41 19.5l43 33q16 10 27.5 33.5T1659 367v32q0 20-11.5 43t-27.5 35l-43 31q-16 12-41 20.5t-45 8.5H432q-20 0-46 9t-42 19L152 711q-16 12-27.5 34.5T113 788z"/><glyph unicode="T" horiz-adv-x="1974" d="M76 969v284q0 20 14 33.5t35 13.5h1724q20 0 34.5-13t14.5-34V977q0-20-14-34.5t-35-14.5h-131q-20 0-34.5 14t-14.5 35v47q0 23-13.5 36t-33.5 13h-473q-20 0-34.5-13t-14.5-36V276q0-20 14-34.5t35-14.5h197q20 0 33.5-14t13.5-35V49q0-20-13.5-34.5T1346 0H629q-20 0-34.5 14.5T580 49v129q0 20 14 34.5t35 14.5h194q20 0 34.5 14.5T872 276v748q0 23-14 36t-35 13H352q-20 0-34.5-13t-14.5-36v-55q0-20-14.5-34.5T254 920H125q-20 0-34.5 14T76 969z"/><glyph unicode="U" horiz-adv-x="2392" d="M90 1122v131q0 20 14.5 33.5T139 1300h715q20 0 34.5-13t14.5-34v-131q0-20-14.5-34.5T854 1073H659q-20 0-34.5-13t-14.5-36V367q0-20 11.5-44t27.5-34l41-33q16-10 42-19.5t46-9.5h836q20 0 46 9.5t42 19.5l41 33q16 10 27.5 33.5T1782 367v657q0 23-14.5 36t-34.5 13h-195q-20 0-34.5 14.5T1489 1122v131q0 20 14.5 33.5t34.5 13.5h717q20 0 33.5-13t13.5-34v-131q0-20-13.5-34.5T2255 1073h-197q-20 0-34.5-13t-14.5-36V252q0-20-11-43t-28-35L1778 29q-16-12-42-20.5T1690 0H702q-20 0-45.5 8T614 29L422 174q-16 12-27.5 34.5T383 252v772q0 23-14.5 36t-34.5 13H139q-20 0-34.5 14.5T90 1122z"/><glyph unicode="V" horiz-adv-x="2250" d="M76 1122v131q0 20 14 33.5t35 13.5h668q20 0 33.5-13t13.5-34v-131q0-20-13.5-34.5T793 1073H653q-20 0-26-12t4-29l479-741q10-16 26.5-16.5T1163 291l467 741q10 16 4 28.5t-26 12.5h-150q-20 0-34.5 14.5T1409 1122v131q0 20 14.5 33.5t34.5 13.5h668q20 0 34.5-13t14.5-34v-131q0-20-14.5-34.5T2126 1073h-191q-20 0-41.5-12t-31.5-29l-484-764q-10-16-4-28.5t27-12.5h166q20 0 34.5-14t14.5-35V49q0-20-14.5-34.5T1567 0H672q-20 0-34.5 14.5T623 49v129q0 20 14 34.5t35 14.5h198q20 0 26.5 12.5T893 268l-494 764q-12 16-33.5 28.5T324 1073H125q-20 0-34.5 14.5T76 1122z"/><glyph unicode="W" horiz-adv-x="3430" d="M90 1122v131q0 20 14.5 33.5T139 1300h666q23 0 36-13t13-34v-131q0-20-13.5-34.5T805 1073H662q-20 0-26.5-12t3.5-29l465-762q10-18 21.5-30.5T1143 227t18.5 12.5T1184 268l399 645q10 16 10 41t-10 43l-22 35q-10 16-32 28.5t-42 12.5h-197q-20 0-34.5 14.5T1241 1122v131q0 20 14.5 33.5t34.5 13.5h668q20 0 33.5-13t13.5-34v-131q0-20-13.5-34.5T1958 1073h-146q-20 0-26-12t4-29l465-762q10-18 21.5-30.5T2294 227t18 12.5 23 30.5l465 762q10 16 3 28.5t-28 12.5h-152q-20 0-34.5 14.5T2574 1122v131q0 20 14.5 33.5t34.5 13.5h668q20 0 34.5-13t14.5-34v-131q0-20-14-34.5t-35-14.5h-188q-20 0-43-12t-33-29l-465-762q-10-18-3-30.5t28-12.5h112q23 0 36-14t13-35V49q0-20-13-34.5T2699 0h-796q-20 0-35 14.5T1853 49v129q0 20 14.5 34.5T1903 227h100q20 0 26.5 12.5T2025 270l-278 457q-10 16-25.5 16t-25.5-16l-283-459q-10-16-4-28.5t27-12.5h112q20 0 34.5-14t14.5-35V49q0-20-14-34.5T1548 0H752q-20 0-35 14.5T702 49v129q0 20 14.5 34.5T752 227h100q20 0 26.5 12.5T874 270l-464 762q-10 16-32 28.5t-42 12.5H139q-20 0-34.5 14.5T90 1122z"/><glyph unicode="X" horiz-adv-x="2422" d="M129 49v129q0 20 14.5 34.5T178 227h119q20 0 47 8.5t43 18.5l598 371q16 10 16 25.5T985 676l-598 373q-16 10-43 17t-47 7H178q-20 0-34.5 14.5T129 1122v131q0 20 14.5 33.5T178 1300h715q20 0 34.5-13t14.5-34v-131q0-20-14.5-34.5T893 1073H764q-20 0-22.5-7t14.5-17l413-258q16-10 41-10.5t41 10.5l414 258q16 10 14 17t-22 7h-129q-20 0-34.5 14.5T1479 1122v131q0 20 14 33.5t35 13.5h717q20 0 34.5-13t14.5-34v-131q0-20-14.5-34.5T2245 1073h-119q-20 0-47-7t-43-17l-598-373q-16-10-16.5-25.5T1438 625l598-371q16-10 42.5-18.5t47.5-8.5h119q20 0 34.5-14t14.5-35V49q0-20-14.5-34.5T2245 0h-717q-20 0-34.5 14.5T1479 49v129q0 20 14 34.5t35 14.5h129q23 0 23.5 8.5T1665 254l-414 256q-16 10-40.5 10t-41.5-10L756 254q-16-10-14.5-18.5T764 227h129q20 0 34.5-14t14.5-35V49q0-20-14.5-34.5T893 0H178q-20 0-34.5 14.5T129 49z"/><glyph unicode="Y" horiz-adv-x="2148" d="M74 1122v131q0 20 14 33.5t35 13.5h665q23 0 36.5-13t13.5-34v-131q0-20-13.5-33.5T788 1075H676q-23 0-26-10t12-23l378-340q16-14 37-14t37 14l379 340q16 12 12 22.5t-24 10.5h-121q-23 0-36 13.5t-13 33.5v131q0 20 13 33.5t36 13.5h665q20 0 35-13t15-34v-131q0-20-14.5-33.5T2025 1075h-155q-20 0-45-9t-41-24l-576-503q-16-12-26.5-36t-10.5-44V276q0-20 14.5-34.5T1221 227h252q20 0 34.5-14t14.5-35V49q0-20-14.5-34.5T1473 0H676q-20 0-34.5 14.5T627 49v129q0 20 14 34.5t35 14.5h252q20 0 34.5 14.5T977 276v189q0 20-10.5 42.5T940 545l-569 497q-16 14-41 23.5t-45 9.5H123q-20 0-34.5 13.5T74 1122z"/><glyph unicode="Z" horiz-adv-x="1916" d="M129 49v98q0 20 11.5 43t27.5 33l1163 824q16 10 14 18t-22 8H406q-20 0-35-13t-15-36v-55q0-20-14-34.5T307 920H178q-20 0-34.5 14T129 969v284q0 20 14.5 33.5T178 1300h1561q23 0 36-13t13-34v-114q0-20-11.5-43t-27.5-35L608 256q-16-12-14-20.5t22-8.5h895q20 0 35 14.5t15 34.5v56q0 20 14 34.5t35 14.5h129q23 0 36-14.5t13-34.5V49q0-20-13.5-34.5T1739 0H178q-20 0-34.5 14.5T129 49z"/><glyph unicode="[" horiz-adv-x="595" d="M129-174v1661q0 23 14.5 36t34.5 13l309 2q20 0 34-14.5t14-34.5v-66q0-20-13.5-34.5T487 1374h-98q-20 0-34.5-13t-14.5-36V-10q0-23 14.5-36T389-59h98q20 0 34-14.5t14-35.5v-65q0-20-13.5-34.5T487-223H178q-20 0-34.5 14T129-174z"/><glyph unicode="\" horiz-adv-x="802" d="M20 1456q-6 20 3.5 33.5T53 1503h70q23 0 41-13t24-34L780-172q6-20-3-33.5T748-219h-70q-23 0-41.5 13T612-172z"/><glyph unicode="]" horiz-adv-x="600" d="M61-109q0 20 14.5 35T111-59h96q20 0 34.5 13T256-10v1335q0 23-14.5 36t-34.5 13h-96q-20 0-35 14.5T61 1423v66q0 20 14.5 34.5T111 1538l309-2q20 0 33.5-13.5T467 1487V-174q0-20-13.5-34.5T420-223H111q-20 0-35 14t-15 35v65z"/><glyph unicode="_" horiz-adv-x="1511" d="M127-117q0 20 14.5 34.5T176-68h1159q23 0 36-14t13-35v-61q0-20-13-34.5t-36-14.5H176q-20 0-34.5 14T127-178v61z"/><glyph unicode="a" horiz-adv-x="2355" d="M72 49v129q0 20 14 34.5t35 14.5h244q20 0 41.5 12.5T438 270l451 762q10 16 3 28.5t-28 12.5h-92q-23 0-36 14.5t-13 34.5v131q0 20 13.5 33.5T772 1300h813q20 0 34.5-13t14.5-34v-131q0-20-14-34.5t-35-14.5h-94q-20 0-26.5-12t3.5-29l449-762q10-18 31.5-30.5T1991 227h245q20 0 34-14t14-35V49q0-20-13.5-34.5T2236 0h-716q-20 0-35 14.5T1470 49v129q0 20 14.5 34.5T1520 227h108q23 0 29 12.5t-4 30.5l-76 127q-10 16-30.5 28.5T1503 438H852q-20 0-42-12t-32-29l-76-127q-10-18-2.5-30.5T727 227h109q20 0 34.5-14t14.5-35V49q0-20-14.5-34.5T836 0H121q-20 0-34.5 14.5T72 49zm868 599q6-12 27-13h422q20 0 27 12 3 5 3 11 0 8-6 18l-211 356q-4 8-8 15.5t-8 13.5q-4 8-8 12l-7-12-9-13.5-9-15.5-209-356q-6-10-6-19 0-4 2-9z"/><glyph unicode="b" horiz-adv-x="2136" d="M129 49v129q0 20 14.5 34.5T178 227h195q20 0 34.5 14.5T422 276v748q0 20-14.5 34.5T373 1073H178q-20 0-34.5 14.5T129 1122v131q0 20 14.5 35t34.5 15h1518q20 0 45.5-9.5t42.5-21.5l192-144q16-12 27.5-34.5t11.5-42.5V791q0-23-11-45.5t-28-34.5l-43-31q-16-12-16-29.5t16-27.5l43-33q16-12 27.5-35t11.5-43V252q0-20-11-43t-28-35L1784 29q-16-12-42-20.5T1696 0H178q-20 0-34.5 14.5T129 49zm520 227q0-20 14.5-34.5T698 227h922q20 0 46 9.5t42 19.5l41 33q16 10 27.5 33.5T1788 367v32q0 20-11.5 43t-27.5 35l-68 49q-16 12-40.5 20.5T1593 555H698q-20 0-34.5-14.5T649 506V276zm0 523q0-20 14.5-34.5T698 750h901q20 0 46 9t43 21l61 45q16 12 27.5 35t11.5 43v33q0 20-11.5 42.5T1749 1014l-41 30q-16 12-42 20.5t-46 8.5H698q-20 0-34.5-14.5T649 1024V799z"/><glyph unicode="c" horiz-adv-x="2013" d="M121 258v784q0 20 10 44t27 38l159 146q16 12 40 21t44 9h1155q20 0 39-13t25-32q6-18 14-18t15 18l2 5q6 18 24.5 32.5t38.5 14.5h131q20 0 34.5-14.5t14.5-35.5V969q0-20-14-33.5t-35-15.5h-131q-20 0-33.5 9t-13.5 21v78q0 18-13.5 31.5T1620 1073H489q-20 0-44.5-9t-38.5-24l-21-16q-16-14-26.5-37.5T348 942V360q0-20 10.5-43.5T385 279l21-19q14-14 38.5-23.5T489 227h1037q20 0 43.5 9.5T1610 260l20 19q16 14 26.5 33.5T1667 346q0 16 13.5 26.5T1714 383h131q20 0 34.5-14.5T1894 334v-76q0-20-10-44t-26-38L1698 33q-16-14-41-23.5T1612 0H401q-20 0-43.5 9T317 33L158 176q-16 14-26.5 38T121 258z"/><glyph unicode="d" horiz-adv-x="2138" d="M129 49v129q0 20 14.5 34.5T178 227h195q20 0 34.5 14.5T422 276v748q0 20-14.5 34.5T373 1073H178q-20 0-34.5 14.5T129 1122v131q0 20 14.5 35t34.5 15h1518q20 0 45.5-9.5t42.5-21.5l192-144q16-12 27.5-34.5t11.5-42.5V252q0-20-11-43t-28-35L1784 29q-16-12-42-20.5T1696 0H178q-20 0-34.5 14.5T129 49zm520 227q0-20 14.5-34.5T698 227h922q20 0 46 9.5t42 21.5l41 31q16 12 27.5 34.5T1788 367v569q0 20-11.5 42.5T1749 1014l-41 30q-16 12-42 20.5t-46 8.5H698q-20 0-34.5-14.5T649 1024V276z"/><glyph unicode="e" horiz-adv-x="2086" d="M129 49v129q0 20 14.5 34.5T178 227h195q20 0 34.5 14.5T422 276v748q0 23-14.5 36t-34.5 13H178q-20 0-34.5 14.5T129 1122v131q0 20 14.5 33.5T178 1300h1731q20 0 34.5-15t14.5-36V975q0-23-14.5-36t-34.5-13h-131q-20 0-34.5 13t-14.5 36v49q0 23-13.5 36t-34.5 13H698q-20 0-34.5-13t-14.5-36V801q0-20 14.5-33.5T698 754h525q20 0 34.5-14.5T1272 705v-99q0-20-14.5-34.5T1223 557H698q-20 0-34.5-13.5T649 508V276q0-20 14.5-34.5T698 227h983q20 0 34 14.5t14 34.5v80q0 20 14 35t35 15h131q20 0 34.5-14.5T1958 356V49q0-20-14.5-34.5T1909 0H178q-20 0-34.5 14.5T129 49z"/><glyph unicode="f" horiz-adv-x="1982" d="M98 49v129q0 20 14.5 34.5T147 227h195q20 0 34.5 14.5T391 276v748q0 23-14.5 36t-34.5 13H147q-20 0-34.5 14.5T98 1122v131q0 20 14.5 33.5T147 1300h1747q20 0 35-13t15-34V963q0-20-14.5-34t-35.5-14h-131q-20 0-34.5 13.5T1714 963v61q0 23-13 36t-34 13H668q-20 0-35-13t-15-36V797q0-20 14.5-34.5T668 748h557q20 0 34.5-13.5T1274 700v-98q0-20-14.5-34.5T1225 553H668q-20 0-35-14.5T618 504V276q0-20 14.5-34.5T668 227h233q20 0 34.5-14t14.5-35V49q0-20-14-34.5T901 0H147q-20 0-34.5 14.5T98 49z"/><glyph unicode="g" horiz-adv-x="2226" d="M123 258v786q0 20 10 44t27 38l159 146q16 12 40 20t44 8h1156q20 0 38.5-13t24.5-32q6-18 14.5-18t14.5 18l2 5q6 18 24.5 32.5t38.5 14.5h131q20 0 34.5-14.5t14.5-35.5V969q0-20-14-33.5t-35-15.5h-131q-20 0-33.5 9t-13.5 21v78q0 18-13.5 31.5T1622 1073H492q-20 0-45-9t-39-24l-21-16q-16-14-26.5-37.5T350 942V362q0-20 10.5-43.5T387 281l21-19q14-14 38.5-23.5T492 229h966q20 0 47 7.5t43 17.5l78 47q16 10 29.5 31.5T1669 375v65q0 20-14.5 34.5T1620 489h-264q-20 0-34.5 14.5T1307 539v96q0 23 14 36t35 13h737q20 0 34.5-13.5T2142 635v-96q0-20-14-35t-35-15h-147q-20 0-35-14t-15-35V59q0-20-14-34.5T1847 10h-131q-20 0-33.5 8.5T1669 37t-13.5 10-29.5-10l-14-10q-16-10-43-18.5T1522 0H403q-20 0-43.5 9T319 33L160 176q-16 14-26.5 38T123 258z"/><glyph unicode="h" horiz-adv-x="2422" d="M129 49v129q0 20 14.5 34.5T178 227h195q20 0 34.5 14.5T422 276v748q0 23-14.5 36t-34.5 13H178q-20 0-34.5 14.5T129 1122v131q0 20 14.5 33.5T178 1300h715q20 0 34.5-13t14.5-34v-131q0-20-14.5-34.5T893 1073H698q-20 0-34.5-13t-14.5-36V797q0-20 14.5-34.5T698 748h1024q23 0 36.5 14t13.5 35v227q0 23-13.5 36t-36.5 13h-194q-20 0-34.5 14.5T1479 1122v131q0 20 14 33.5t35 13.5h717q20 0 34.5-13t14.5-34v-131q0-20-14.5-34.5T2245 1073h-197q-20 0-33.5-13t-13.5-36V276q0-20 13.5-34.5T2048 227h197q20 0 34.5-14t14.5-35V49q0-20-14.5-34.5T2245 0h-717q-20 0-34.5 14.5T1479 49v129q0 20 14 34.5t35 14.5h194q23 0 36.5 14.5T1772 276v228q0 20-13.5 34.5T1722 553H698q-20 0-34.5-14.5T649 504V276q0-20 14.5-34.5T698 227h195q20 0 34.5-14t14.5-35V49q0-20-14.5-34.5T893 0H178q-20 0-34.5 14.5T129 49z"/><glyph unicode="i" horiz-adv-x="1071" d="M129 49v129q0 20 14.5 34.5T178 227h195q20 0 34.5 14.5T422 276v752q0 20-14.5 34.5T373 1077H178q-20 0-34.5 13.5T129 1126v129q0 20 14.5 35t34.5 15h715q20 0 34.5-14.5T942 1255v-129q0-23-14.5-36t-34.5-13H698q-20 0-34.5-14t-14.5-35V276q0-20 14.5-34.5T698 227h195q20 0 34.5-14t14.5-35V49q0-20-14.5-34.5T893 0H178q-20 0-34.5 14.5T129 49z"/><glyph unicode="j" horiz-adv-x="1810" d="M-4 240v5q0 17 10 31l78 105q12 16 31.5 18t36.5-8l178-135q16-10 41.5-19.5T418 227h622q23 0 47.5 9.5T1128 256l43 33q16 10 27.5 33.5T1210 367v657q0 23-14 36t-35 13H965q-20 0-33.5 14.5T918 1122v131q0 20 13 33.5t34 13.5h716q20 0 35-13t15-34v-131q0-20-14.5-34.5T1681 1073h-194q-20 0-34.5-13t-14.5-36V252q0-20-11.5-43t-27.5-35L1204 29q-16-12-40.5-20.5T1118 0H342q-20 0-46 8t-42 21L14 209q-16 10-18 31z"/><glyph unicode="k" horiz-adv-x="2207" d="M129 49v129q0 20 14.5 34.5T178 227h195q20 0 34.5 14.5T422 276v748q0 23-14.5 36t-34.5 13H178q-20 0-34.5 14.5T129 1122v131q0 20 14.5 33.5T178 1300h715q20 0 34.5-13t14.5-34v-131q0-20-14.5-34.5T893 1073H698q-20 0-34.5-13t-14.5-36V633q0-20 12.5-26.5T690 610l705 439q16 10 14 17t-23 7h-71q-23 0-36 14.5t-13 34.5v131q0 20 13 33.5t36 13.5h715q20 0 34.5-13t14.5-34v-131q0-20-14.5-34.5T2030 1073h-175q-20 0-46.5-7t-43.5-17l-475-295q-16-10-18-27.5t14-30.5l522-438q16-12 41-21.5t45-9.5h136q20 0 34.5-14t14.5-35V49q0-20-14.5-34.5T2030 0h-715q-23 0-36 14.5T1266 49v129q0 20 13 34.5t36 14.5h178q20 0 24.5 9.5T1505 258l-393 330q-16 14-38.5 15t-39.5-9L690 381q-16-10-28.5-31.5T649 307v-31q0-20 14.5-34.5T698 227h195q20 0 34.5-14t14.5-35V49q0-20-14.5-34.5T893 0H178q-20 0-34.5 14.5T129 49z"/><glyph unicode="l" horiz-adv-x="2015" d="M129 49v129q0 20 14.5 34.5T178 227h195q20 0 34.5 14.5T422 276v748q0 23-14.5 36t-34.5 13H178q-20 0-34.5 14.5T129 1122v131q0 20 14.5 33.5T178 1300h754q20 0 34.5-13t14.5-34v-131q0-20-14.5-34.5T932 1073H698q-20 0-34.5-13t-14.5-36V276q0-20 14.5-34.5T698 227h1000q20 0 33.5 14.5T1745 276v62q0 20 14.5 34.5T1794 387h131q20 0 34.5-14.5T1974 338V49q0-20-14-34.5T1925 0H178q-20 0-34.5 14.5T129 49z"/><glyph unicode="m" horiz-adv-x="2633" d="M129 49v129q0 20 14.5 34.5T178 227h195q20 0 34.5 14.5T422 276v748q0 23-14.5 36t-34.5 13H178q-20 0-34.5 14.5T129 1122v131q0 20 14.5 35t34.5 15h516q23 0 44.5-12.5T770 1262l520-801q10-16 26.5-16.5T1343 461l521 801q10 16 31.5 28.5t41.5 12.5h519q20 0 34.5-14.5t14.5-35.5v-131q0-20-14.5-34.5T2456 1073h-195q-20 0-34.5-13t-14.5-36V276q0-20 14.5-34.5T2261 227h195q20 0 34.5-14t14.5-35V49q0-20-14.5-34.5T2456 0h-717q-20 0-33.5 14.5T1692 49v129q0 20 13 34.5t34 14.5h196q20 0 35 14.5t15 34.5v703q0 20-8.5 22.5T1958 987L1343 43q-10-16-25-16t-26 16L676 987q-10 16-18.5 15t-8.5-23V276q0-20 14.5-34.5T698 227h195q20 0 34.5-14t14.5-35V49q0-20-14.5-34.5T893 0H178q-20 0-34.5 14.5T129 49z"/><glyph unicode="n" horiz-adv-x="2293" d="M129 49v127q0 23 14.5 37t34.5 14h178q20 0 35 14.5t15 34.5v748q0 20-14.5 34.5T356 1073H178q-20 0-34.5 14.5T129 1122v129q0 23 14.5 37.5T178 1303h350q23 0 46.5-10.5T614 1270l1024-905q16-14 26.5-9.5T1675 383v641q0 23-14 37t-35 14h-194q-20 0-35 14.5t-15 34.5v127q0 23 14.5 37.5t35.5 14.5h714q20 0 34.5-14.5t14.5-37.5v-127q0-20-14-34.5t-35-14.5h-194q-20 0-34.5-14t-14.5-37V49q0-20-14.5-34.5T1853 0h-102q-20 0-45 9t-41 24L670 913q-16 12-26.5 8.5T633 895V276q0-20 14.5-34.5T682 227h211q20 0 34.5-14t14.5-37V49q0-20-14.5-34.5T893 0H178q-20 0-34.5 14.5T129 49z"/><glyph unicode="o" horiz-adv-x="2017" d="M121 258v784q0 20 10 44t27 38l159 146q16 12 40 21t44 9h1211q20 0 44.5-9t41.5-21l160-146q16-14 26-37.5t10-44.5V258q0-20-10-44t-26-38L1698 33q-16-14-41-23.5T1612 0H401q-20 0-43.5 9T317 33L158 176q-16 14-26.5 38T121 258zm227 102q0-20 10.5-43.5T385 279l21-19q14-14 38.5-23.5T489 227h1037q20 0 43.5 9.5T1610 260l20 19q16 14 26.5 37.5T1667 360v582q0 20-10 44t-27 38l-20 16q-16 14-40 23.5t-44 9.5H489q-20 0-44.5-9t-38.5-24l-21-16q-16-14-26.5-37.5T348 942V360z"/><glyph unicode="p" horiz-adv-x="2097" d="M129 49v129q0 20 14.5 34.5T178 227h195q20 0 34.5 14.5T422 276v748q0 20-14.5 34.5T373 1073H178q-20 0-34.5 14.5T129 1122v131q0 20 14.5 35t34.5 15h1518q20 0 45.5-9.5t42.5-21.5l192-144q16-12 27.5-34.5t11.5-42.5V791q0-23-11-45.5t-28-34.5l-192-144q-16-12-42-21t-46-9H698q-20 0-34.5-13.5T649 489V276q0-20 14.5-34.5T698 227h195q20 0 34.5-14t14.5-35V49q0-20-14.5-34.5T893 0H178q-20 0-34.5 14.5T129 49zm520 764q0-20 14.5-33.5T698 766h922q20 0 46 8t42 21l41 30q16 12 27.5 35t11.5 43v33q0 20-11.5 42.5T1749 1014l-41 30q-16 12-42 21.5t-46 9.5l-922-2q-20 0-34.5-14.5T649 1024V813z"/><glyph unicode="q" horiz-adv-x="2043" d="M115 258v784q0 20 10 44t27 38l159 146q16 12 40 22.5t44 10.5h1211q20 0 44.5-10.5t41.5-22.5l159-146q16-14 26.5-37.5t10.5-44.5V258q0-20-7-41t-17-29q-10-10-7-26.5t17-30.5l37-37q14-14 14-33.5T1911 25l-70-68q-14-16-33.5-16T1772-43l-43 43q-14 14-30 19.5t-24-3.5q-10-6-29.5-11T1606 0H395q-20 0-43.5 9T311 33L152 176q-16 14-26.5 38T115 258zm227 102q0-20 10-43.5t27-37.5l20-19q14-14 39-23.5t45-9.5h969q20 0 24.5 10.5T1466 262l-96 96q-14 14-14 34t14 34l70 70q14 14 33.5 14t35.5-14l117-117q14-14 24.5-10t10.5 24v549q0 20-10.5 44t-26.5 38l-20 16q-16 14-40 23.5t-44 9.5H483q-20 0-44.5-9t-39.5-24l-20-16q-16-14-26.5-37.5T342 942V360z"/><glyph unicode="r" horiz-adv-x="2435" d="M129 49v129q0 20 14.5 34.5T178 227h195q20 0 34.5 14.5T422 276v748q0 23-14.5 36t-34.5 13H178q-20 0-34.5 14.5T129 1122v131q0 20 14.5 33.5T178 1300h1698q20 0 46-8t42-20l193-146q16-10 27-33.5t11-43.5V788q0-20-11-42.5t-27-34.5l-193-146q-16-10-42-19t-46-9h-279q-20 0-21-6.5t15-16.5l480-262q18-10 44.5-17.5t47.5-7.5h116q20 0 35-14t15-35V49q0-20-14.5-34.5T2279 0h-716q-20 0-33.5 14.5T1516 49v129q0 20 13 34.5t34 14.5h96q20 0 21 7.5t-15 17.5l-479 262q-16 10-44 16.5t-48 6.5H698q-20 0-34.5-14.5T649 487V276q0-20 14.5-34.5T698 227h195q20 0 34.5-14t14.5-35V49q0-20-14.5-34.5T893 0H178q-20 0-34.5 14.5T129 49zm520 764q0-20 14.5-34.5T698 764h1102q20 0 45 9t41 22l43 30q16 12 27.5 35t11.5 43v33q0 20-11 42.5t-28 35.5l-43 30q-16 12-40.5 20.5t-45.5 8.5H698q-20 0-34.5-13t-14.5-36V813z"/><glyph unicode="s" horiz-adv-x="1998" d="M113 788v261q0 20 11 43.5t28 33.5l192 146q16 12 42 20t46 8h1161q20 0 47-7t43-17l172-109q16-10 20.5-29.5t-5.5-35.5l-68-111q-10-16-30.5-21t-36.5 5l-117 74q-16 10-43 17t-47 7H508q-20 0-46-8t-42-21l-41-30q-16-12-27.5-35T340 936v-33q0-20 11-42.5t28-35.5l41-30q16-12 41.5-21.5T508 764h1059q20 0 45.5-8t42.5-21l192-145q16-12 27.5-35t11.5-43V252q0-20-11-43t-28-35L1655 29q-16-12-42-20.5T1567 0H438q-20 0-46.5 7T348 25L145 147q-18 10-23 30t5 38l68 111q10 16 30.5 21t36.5-5l150-90q16-10 42.5-17.5T502 227h989q20 0 45 9.5t41 19.5l43 33q16 10 27.5 33.5T1659 367v32q0 20-11.5 43t-27.5 35l-43 31q-16 12-41 20.5t-45 8.5H432q-20 0-46 9t-42 19L152 711q-16 12-27.5 34.5T113 788z"/><glyph unicode="t" horiz-adv-x="1974" d="M76 969v284q0 20 14 33.5t35 13.5h1724q20 0 34.5-13t14.5-34V977q0-20-14-34.5t-35-14.5h-131q-20 0-34.5 14t-14.5 35v47q0 23-13.5 36t-33.5 13h-473q-20 0-34.5-13t-14.5-36V276q0-20 14-34.5t35-14.5h197q20 0 33.5-14t13.5-35V49q0-20-13.5-34.5T1346 0H629q-20 0-34.5 14.5T580 49v129q0 20 14 34.5t35 14.5h194q20 0 34.5 14.5T872 276v748q0 23-14 36t-35 13H352q-20 0-34.5-13t-14.5-36v-55q0-20-14.5-34.5T254 920H125q-20 0-34.5 14T76 969z"/><glyph unicode="u" horiz-adv-x="2392" d="M90 1122v131q0 20 14.5 33.5T139 1300h715q20 0 34.5-13t14.5-34v-131q0-20-14.5-34.5T854 1073H659q-20 0-34.5-13t-14.5-36V367q0-20 11.5-44t27.5-34l41-33q16-10 42-19.5t46-9.5h836q20 0 46 9.5t42 19.5l41 33q16 10 27.5 33.5T1782 367v657q0 23-14.5 36t-34.5 13h-195q-20 0-34.5 14.5T1489 1122v131q0 20 14.5 33.5t34.5 13.5h717q20 0 33.5-13t13.5-34v-131q0-20-13.5-34.5T2255 1073h-197q-20 0-34.5-13t-14.5-36V252q0-20-11-43t-28-35L1778 29q-16-12-42-20.5T1690 0H702q-20 0-45.5 8T614 29L422 174q-16 12-27.5 34.5T383 252v772q0 23-14.5 36t-34.5 13H139q-20 0-34.5 14.5T90 1122z"/><glyph unicode="v" horiz-adv-x="2250" d="M76 1122v131q0 20 14 33.5t35 13.5h668q20 0 33.5-13t13.5-34v-131q0-20-13.5-34.5T793 1073H653q-20 0-26-12t4-29l479-741q10-16 26.5-16.5T1163 291l467 741q10 16 4 28.5t-26 12.5h-150q-20 0-34.5 14.5T1409 1122v131q0 20 14.5 33.5t34.5 13.5h668q20 0 34.5-13t14.5-34v-131q0-20-14.5-34.5T2126 1073h-191q-20 0-41.5-12t-31.5-29l-484-764q-10-16-4-28.5t27-12.5h166q20 0 34.5-14t14.5-35V49q0-20-14.5-34.5T1567 0H672q-20 0-34.5 14.5T623 49v129q0 20 14 34.5t35 14.5h198q20 0 26.5 12.5T893 268l-494 764q-12 16-33.5 28.5T324 1073H125q-20 0-34.5 14.5T76 1122z"/><glyph unicode="w" horiz-adv-x="3430" d="M90 1122v131q0 20 14.5 33.5T139 1300h666q23 0 36-13t13-34v-131q0-20-13.5-34.5T805 1073H662q-20 0-26.5-12t3.5-29l465-762q10-18 21.5-30.5T1143 227t18.5 12.5T1184 268l399 645q10 16 10 41t-10 43l-22 35q-10 16-32 28.5t-42 12.5h-197q-20 0-34.5 14.5T1241 1122v131q0 20 14.5 33.5t34.5 13.5h668q20 0 33.5-13t13.5-34v-131q0-20-13.5-34.5T1958 1073h-146q-20 0-26-12t4-29l465-762q10-18 21.5-30.5T2294 227t18 12.5 23 30.5l465 762q10 16 3 28.5t-28 12.5h-152q-20 0-34.5 14.5T2574 1122v131q0 20 14.5 33.5t34.5 13.5h668q20 0 34.5-13t14.5-34v-131q0-20-14-34.5t-35-14.5h-188q-20 0-43-12t-33-29l-465-762q-10-18-3-30.5t28-12.5h112q23 0 36-14t13-35V49q0-20-13-34.5T2699 0h-796q-20 0-35 14.5T1853 49v129q0 20 14.5 34.5T1903 227h100q20 0 26.5 12.5T2025 270l-278 457q-10 16-25.5 16t-25.5-16l-283-459q-10-16-4-28.5t27-12.5h112q20 0 34.5-14t14.5-35V49q0-20-14-34.5T1548 0H752q-20 0-35 14.5T702 49v129q0 20 14.5 34.5T752 227h100q20 0 26.5 12.5T874 270l-464 762q-10 16-32 28.5t-42 12.5H139q-20 0-34.5 14.5T90 1122z"/><glyph unicode="x" horiz-adv-x="2422" d="M129 49v129q0 20 14.5 34.5T178 227h119q20 0 47 8.5t43 18.5l598 371q16 10 16 25.5T985 676l-598 373q-16 10-43 17t-47 7H178q-20 0-34.5 14.5T129 1122v131q0 20 14.5 33.5T178 1300h715q20 0 34.5-13t14.5-34v-131q0-20-14.5-34.5T893 1073H764q-20 0-22.5-7t14.5-17l413-258q16-10 41-10.5t41 10.5l414 258q16 10 14 17t-22 7h-129q-20 0-34.5 14.5T1479 1122v131q0 20 14 33.5t35 13.5h717q20 0 34.5-13t14.5-34v-131q0-20-14.5-34.5T2245 1073h-119q-20 0-47-7t-43-17l-598-373q-16-10-16.5-25.5T1438 625l598-371q16-10 42.5-18.5t47.5-8.5h119q20 0 34.5-14t14.5-35V49q0-20-14.5-34.5T2245 0h-717q-20 0-34.5 14.5T1479 49v129q0 20 14 34.5t35 14.5h129q23 0 23.5 8.5T1665 254l-414 256q-16 10-40.5 10t-41.5-10L756 254q-16-10-14.5-18.5T764 227h129q20 0 34.5-14t14.5-35V49q0-20-14.5-34.5T893 0H178q-20 0-34.5 14.5T129 49z"/><glyph unicode="y" horiz-adv-x="2148" d="M74 1122v131q0 20 14 33.5t35 13.5h665q23 0 36.5-13t13.5-34v-131q0-20-13.5-33.5T788 1075H676q-23 0-26-10t12-23l378-340q16-14 37-14t37 14l379 340q16 12 12 22.5t-24 10.5h-121q-23 0-36 13.5t-13 33.5v131q0 20 13 33.5t36 13.5h665q20 0 35-13t15-34v-131q0-20-14.5-33.5T2025 1075h-155q-20 0-45-9t-41-24l-576-503q-16-12-26.5-36t-10.5-44V276q0-20 14.5-34.5T1221 227h252q20 0 34.5-14t14.5-35V49q0-20-14.5-34.5T1473 0H676q-20 0-34.5 14.5T627 49v129q0 20 14 34.5t35 14.5h252q20 0 34.5 14.5T977 276v189q0 20-10.5 42.5T940 545l-569 497q-16 14-41 23.5t-45 9.5H123q-20 0-34.5 13.5T74 1122z"/><glyph unicode="z" horiz-adv-x="1916" d="M129 49v98q0 20 11.5 43t27.5 33l1163 824q16 10 14 18t-22 8H406q-20 0-35-13t-15-36v-55q0-20-14-34.5T307 920H178q-20 0-34.5 14T129 969v284q0 20 14.5 33.5T178 1300h1561q23 0 36-13t13-34v-114q0-20-11.5-43t-27.5-35L608 256q-16-12-14-20.5t22-8.5h895q20 0 35 14.5t15 34.5v56q0 20 14 34.5t35 14.5h129q23 0 36-14.5t13-34.5V49q0-20-13.5-34.5T1739 0H178q-20 0-34.5 14.5T129 49z"/><glyph unicode="{" horiz-adv-x="821" d="M27 610v66q0 20 14 34.5T76 725h10q20 0 46 8t42 21l41 30q16 12 27.5 35t11.5 43v404q0 20 11 43.5t28 33.5l194 146q16 12 41 20.5t45 8.5h138q20 0 33.5-13.5T758 1470v-32q0-20-13.5-34.5T711 1389h-76q-23 0-47.5-9.5T547 1360l-41-33q-16-10-28.5-33.5T465 1249V782q0-20-11.5-43.5T426 705l-41-33q-16-10-16-27.5t16-30.5l41-30q16-12 27.5-35t11.5-43V66q0-20 12-44t29-34l41-33q16-10 40.5-19.5T635-74h76q20 0 33.5-14t13.5-35v-33q0-20-13.5-33.5T711-203H573q-20 0-44.5 8.5T487-174L293-29q-16 10-27.5 34T254 49v375q0 20-11.5 42.5T215 502l-41 30q-16 12-42 20.5T86 561H76q-20 0-34.5 14.5T27 610z"/><glyph unicode="|" horiz-adv-x="436" d="M129-170v1624q0 20 14.5 34.5T178 1503h70q20 0 34.5-14t14.5-35V-170q0-20-14.5-34.5T248-219h-70q-20 0-34.5 14.5T129-170z"/><glyph unicode="}" horiz-adv-x="821" d="M63-123q0 20 14.5 34.5T113-74h75q20 0 46 9.5T276-45l41 33q16 10 27.5 33.5T356 66v466q0 20 11.5 44t27.5 36l41 31q16 10 16.5 27.5T436 700l-41 31q-16 12-27.5 34.5T356 809v440q0 20-11 44t-28 34l-41 33q-16 10-41.5 19.5T188 1389h-75q-20 0-35 14t-15 35v32q0 20 14.5 34t35.5 14h135q20 0 45.5-8.5T336 1489l192-146q16-10 27.5-33.5T567 1266V891q0-20 11.5-43t27.5-35l41-31q16-12 42-20t46-8h13q20 0 33.5-14.5T795 705v-66q0-20-13.5-34.5T748 590h-13q-20 0-45.5-8.5T647 561l-41-31q-16-12-27.5-34.5T567 453V49q0-20-11-43.5T528-29L336-174q-16-12-42-20.5t-46-8.5H113q-20 0-35 13.5T63-156v33z"/><glyph unicode="" d="M127 582v80q0 20 14.5 33.5T176 709h590q23 0 36-13.5t13-33.5v-80q0-20-13.5-33.5T766 535H176q-20 0-34.5 13T127 582z"/><glyph horiz-adv-x="769"/><glyph horiz-adv-x="1538"/><glyph horiz-adv-x="769"/><glyph horiz-adv-x="1538"/><glyph horiz-adv-x="512"/><glyph horiz-adv-x="384"/><glyph horiz-adv-x="256"/><glyph horiz-adv-x="256"/><glyph horiz-adv-x="192"/><glyph horiz-adv-x="307"/><glyph horiz-adv-x="85"/><glyph unicode="" d="M127 582v80q0 20 14.5 33.5T176 709h590q23 0 36-13.5t13-33.5v-80q0-20-13.5-33.5T766 535H176q-20 0-34.5 13T127 582z"/><glyph unicode="" d="M127 582v80q0 20 14.5 33.5T176 709h590q23 0 36-13.5t13-33.5v-80q0-20-13.5-33.5T766 535H176q-20 0-34.5 13T127 582z"/><glyph unicode="" d="M127 582v80q0 20 14.5 33.5T176 709h590q23 0 36-13.5t13-33.5v-80q0-20-13.5-33.5T766 535H176q-20 0-34.5 13T127 582z"/><glyph unicode="" horiz-adv-x="1278" d="M127 582v80q0 20 21.5 33.5T200 709h878q34 0 53.5-13.5T1151 662v-80q0-20-20-33.5t-53-13.5H200q-30 0-51.5 13T127 582z"/><glyph unicode="" horiz-adv-x="2302" d="M127 582v80q0 20 43 33.5T273 709h1756q69 0 107.5-13.5T2175 662v-80q0-20-40-33.5T2029 535H273q-60 0-103 13t-43 34z"/><glyph horiz-adv-x="307"/><glyph horiz-adv-x="384"/><glyph unicode="" horiz-adv-x="1300" d="M0 0v1300h1300V0H0z"/></font>
</defs>
</svg>
